<?xml version="1.0" encoding="UTF-8"?><svg id="Calque_2" xmlns="http://www.w3.org/2000/svg" viewBox="0 0 402.97 508.8"><defs><style>.cls-1,.cls-2,.cls-3,.cls-4,.cls-5{stroke-linecap:round;stroke-linejoin:round;}.cls-1,.cls-2,.cls-3,.cls-4,.cls-5,.cls-6,.cls-7{stroke:#003a2f;}.cls-1,.cls-3,.cls-8,.cls-9,.cls-7{fill:#003a2f;}.cls-2,.cls-4,.cls-5{fill:none;}.cls-3,.cls-4,.cls-9{opacity:.2;}.cls-5{stroke-width:2px;}.cls-8{font-family:ITCFranklinGothicStd-DmCp, 'ITC Franklin Gothic Std';font-size:16px;}.cls-6{fill:#f6f6f6;}.cls-6,.cls-7{stroke-miterlimit:10;}.cls-7{opacity:.44;}</style></defs><g id="Calque_2-2"><g><path class="cls-9" d="M205.32,108.2s.54,.59,2.12,.92c-1.57-.24-2.48-.56-2.12-.92Z"/><path class="cls-9" d="M215.82,109.58c-2.43,.06-5.04-.06-7.05-.28,2.69,.19,5.4,.26,7.05,.28Z"/><path class="cls-9" d="M207.44,109.12c-1.57-.24-2.48-.56-2.12-.92,0,0,.54,.59,2.12,.92Z"/><path class="cls-9" d="M215.82,109.58c-2.43,.06-5.04-.06-7.05-.28,2.69,.19,5.4,.26,7.05,.28Z"/><path class="cls-4" d="M252.64,162.2c-.01,.35-.07,.7-.19,1.02-.19-.28-.28-.56-.23-.82,.02-.1,.17-.16,.42-.2Z"/><path class="cls-4" d="M266.03,179.28c-.6,3.83,1.21,10.87-.8,10.87s-2.91-.96-5.89,1.13c-3.62,2.55,1.54,8.09-1.25,10.28-2.78,2.19-4.87-.44-5.74-.66-.88-.22-.88-5.46-1.53-7.43-.66-1.97-3.07,0-4.6-1.53s-.21-12.03-3.28-13.12c-1.22-.44-3.49-.6-6-.55-3.77,.08-8.08,.63-10.18,1.42-3.08,1.15-1.76,7.04-2.14,9.34-.75,.65-1.51,1.31-2.28,1.99-1.59,.72-3.63,1.38-4.76,2.23-1.02,.76-1.15,2.34-2.46,4.04-.6,.78-1.44,1.58-2.72,2.33-.74,.45-1.63,.88-2.71,1.28-5,1.87-12.28,8.5-15.76,13.42-1.03,.65-1.8,1.01-2.22,1.03-4.38,.19-12.15,2.59-15.54,2.98-3.39,.4-4.78,1-6.98,2.79-2.19,1.8-5.18-.79-7.37,0-2.19,.8-2.79-6.57,0-7.77,2.79-1.19,10.96-3.19,11.16-4.38,.2-1.2,2.99-2.99,5.38-4.58,2.39-1.6,2.99-7.18,3.99-7.18s5.44-.8,7.97-2.99c.26-.22,.87-.84,1.75-1.76h.01c3.59-1.83,8.05-6.86,10.02-9.39,3.22-4.13,28.93-25.94,33.52-26.63,4.59-.68,10.79-.13,13.08,.97,.72,.35,1.38-.28,1.93-1.36,.67,2.08,2.05,4.27,2.01,6.15-.01,.35-.07,.7-.19,1.02,.58,.87,2.12,1.75,3.55,1.91,1.89,.21,1.68,7.56,3.79,8.4,2.1,.84,3.57-2.31,6.09-3.57,2.52-1.26,3.15,1.68,3.78,5.04s-3.02,.46-3.63,4.28Z"/><path class="cls-3" d="M252.64,162.2c-.01,.35-.07,.7-.19,1.02-.26,.71-.82,1.36-1.82,1.91-3.92,2.19-8.69,9.56-11.49,11.36-.31,.2-1.08,.82-2.2,1.78-3.77,.08-8.08,.63-10.18,1.42-3.08,1.15-1.76,7.04-2.14,9.34-.75,.65-1.51,1.31-2.28,1.99-1.59,.72-3.63,1.38-4.76,2.23-1.02,.76-1.15,2.34-2.46,4.04-.91,.78-1.82,1.56-2.72,2.33-.74,.45-1.63,.88-2.71,1.28-5,1.87-12.28,8.5-15.76,13.42-1.03,.65-1.8,1.01-2.22,1.03-4.38,.19-12.15,2.59-15.54,2.98-3.39,.4-4.78,1-6.98,2.79-2.19,1.8-5.18-.79-7.37,0-2.19,.8-2.79-6.57,0-7.77,2.79-1.19,10.96-3.19,11.16-4.38,.2-1.2,2.99-2.99,5.38-4.58,2.39-1.6,2.99-7.18,3.99-7.18s5.44-.8,7.97-2.99c.26-.22,.87-.84,1.75-1.76h.01c3.59-1.83,8.05-6.86,10.02-9.39,3.22-4.13,28.93-25.94,33.52-26.63,4.59-.68,10.79-.13,13.08,.97,.72,.35,1.38-.28,1.93-1.36,.67,2.08,2.05,4.27,2.01,6.15Z"/><path class="cls-3" d="M228.18,341.47c-.39,.79-.94,1.39-1.6,1.82-3.77,2.5-11.07-.21-13.12-.42h-.03c-.19-.05-.38-.09-.56-.13-5.3-1.19-10.07-1.63-14.18-1.71-6.81-.12-11.84,.75-14.57,.85-5.4,.2-5.76-2.59-8.95-2.99s-10.36,1.99-18.53,2.39c-8.17,.4-15.54-5.18-25.11,2.99-9.56,8.17-24.31,14.94-28.89,14.75-4.58-.2-14.75-10.17-17.34-9.97-2.59,.2-1.79,5.38-3.38,7.38-1.6,1.99-6.98,2.19-8.37,8.52-.88,3.97-6.91,5.95-11.35,9.18-2.64,1.93-4.72,4.3-4.79,7.8-.2,9.37-8.17,17.34-9.97,17.34s-.59-5.58,0-8.23c.6-2.65,3.99-9.91,4.39-11.5,.4-1.59,2.48-4.07,1.19-7.77-.35-1-.64-2.12-.88-3.26,.45-.16,.98-.52,1.55-1.03,2.72-2.36,6.41-7.67,6.41-7.67,0,0,7.64-11.08,7.64-13.37s2.96-3.06,6.83-4.97c3.87-1.91,6.54-13.75,12.27-18.72,5.73-4.96,16.04-5.34,22.54-5.34s17.19-8.41,20.24-10.7c.11-.08,.22-.16,.34-.24h.01c3.16-2.27,10.03-5.67,19.62-4.79,.22,.01,.44,.04,.66,.06,10.32,1.15,21.01,3.06,22.92,4.97,1.91,1.91,3.06,3.44,6.88,4.2,2.93,.59,23.18,10.39,33.99,15.1h.01c3.28,1.43,5.69,2.38,6.49,2.47,3.44,.39,10.7,6.88,7.64,12.99Z"/><path class="cls-5" d="M368.53,65.5c-.23,1.38-28.93,.92-30.76-.46-1.84-1.37-2.99-6.88-6.2-6.19-3.21,.69-9.64,8.72-19.51,9.64-9.87,.92-28.92-3.22-31.91-1.84-2.98,1.38-1.38,8.95-1.61,14s-19.05-1.6-21.8,3.91c-2.76,5.51-19.74,14.92-22.45,14.92s-9.92,6.42-11.3,8.72c-.52,.88-3.48,1.29-6.82,1.38h-.18s-.11,0-.17,0c-1.65-.02-4.36-.09-7.05-.28h-.02c-.18,0-.35-.03-.51-.06-.23-.02-.44-.05-.64-.09-.06-.01-.11-.02-.16-.03-1.58-.33-2.12-.92-2.12-.92,1.38-1.38,24.79-21.12,27.54-22.73,2.76-1.6,2.53-11.7,4.14-13.31,1.6-1.61,4.59-1.84,8.49-2.52,3.9-.69,22.5-20.66,16.76-25.25-5.74-4.6-14.24-2.76-16.99-2.76s-5.05,2.76-12.17,3.9c-7.11,1.15-9.18-2.98-7.34-12.39,1.83-9.41,13.54-14.46,16.07-16.99,2.52-2.52-3.45-7.57-2.76-8.95s8.27-6.2,11.94-6.2,8.23,4.32,11.25,4.13c3.67-.23,7.11-1.83,9.87-2.06,2.75-.23,4.36,2.75,6.19,2.52,1.84-.23,8.27-2.29,11.02-2.29s3.68,3.44,.69,8.03c-2.98,4.59-.92,11.48,2.53,13.31,3.44,1.84,11.24-4.59,19.28-3.44,8.03,1.15,18.13,17.68,21.81,19.05,3.67,1.38,19.51,2.07,23.41,3.91,3.9,1.83-.46,5.96,5.05,9.18,5.51,3.21,6.66,10.79,6.43,12.16Z"/><path class="cls-2" d="M205.32,108.2s.54,.59,2.12,.92c-1.57-.24-2.48-.56-2.12-.92Z"/><path class="cls-2" d="M215.82,109.58c-2.43,.06-5.04-.06-7.05-.28,2.69,.19,5.4,.26,7.05,.28Z"/><path class="cls-2" d="M207.44,109.12c-1.57-.24-2.48-.56-2.12-.92,0,0,.54,.59,2.12,.92Z"/><path class="cls-2" d="M215.82,109.58c-2.43,.06-5.04-.06-7.05-.28,2.69,.19,5.4,.26,7.05,.28Z"/><path class="cls-2" d="M252.64,162.2c-.01,.35-.07,.7-.19,1.02-.19-.28-.28-.56-.23-.82,.02-.1,.17-.16,.42-.2Z"/><path class="cls-5" d="M331.41,266.16c-1.47,1.47-9.24-.42-10.71,1.68-1.47,2.1,0,10.93-1.68,12.4-1.68,1.47,.21,2.94-2.31,6.09s-13.03,3.57-13.87,5.25c-.63,1.26-1.14,3.33-2.07,4.3h0c-.3,.33-.66,.53-1.08,.53-1.68,0-13.02,1.68-14.49,1.47-1.47-.21-6.72,.42-7.77,4.2-1.05,3.78-.63,9.03-2.73,8.82-2.1-.21-18.91-.82-19.54,.01-.63,.83-3.99,14.91-10.71,14.49-6.72-.42-.84-13.87-6.3-13.87s-20.58-4.2-27.31-3.57c-6.72,.63-14.7-7.35-10.92-9.66,3.78-2.31,13.24,.42,14.92-.21s3.15-3.57,5.88-4.2,2.94-5.46,1.26-5.46-7.77,.84-9.25-1.05c-1.47-1.89-13.71-.42-13.78-3.15-.08-2.73-1.76-20.17,2.02-20.8,3.78-.63,16.39-1.47,16.39-3.36s-5.89-11.34-2.1-12.6c3.78-1.26,8.4-1.26,10.5-4.83,2.1-3.57,3.78-5.67,1.05-9.66-2.73-3.99,3.78-7.36,7.77-9.88,3.99-2.52-.38-12.36,1.8-13.67,2.19-1.31,6.35,1.53,7.22,1.09,.87-.43-.44-18.15-2.84-18.36-2.41-.22-10.94-.22-12.25-.44-1.31-.22-3.5-1.31-4.15,3.72-.66,5.03,5.03,27.11,1.31,27.99-3.72,.87-7.44-1.32-8.75,1.96-1.31,3.28,1.75,10.5-1.53,12.69-3.28,2.18-24.82,1.31-26.73,2.4-1.92,1.1-4.54,1.97-4.54-1.09s7-7.22,9.84-7c2.84,.22,11.15,2.84,13.78,1.1,2.62-1.75,4.99-9.63,1.95-10.5-3.05-.88-10.48,.22-12.01-.66-1.53-.87-4.81,.22-5.69-3.28-.25-1.01,.53-2.73,1.94-4.73,3.48-4.92,10.76-11.55,15.76-13.42,1.08-.4,1.97-.83,2.71-1.28,1.28-.75,2.12-1.55,2.72-2.33,1.31-1.7,1.44-3.28,2.46-4.04,1.13-.85,3.17-1.51,4.76-2.23,.77-.68,1.53-1.34,2.28-1.99,.38-2.3-.94-8.19,2.14-9.34,2.1-.79,6.41-1.34,10.18-1.42,2.51-.05,4.78,.11,6,.55,3.07,1.09,1.75,11.59,3.28,13.12,1.53,1.53,3.94-.44,4.6,1.53,.65,1.97,.65,7.21,1.53,7.43,.87,.22,2.96,2.85,5.74,.66,2.79-2.19-2.37-7.73,1.25-10.28,2.98-2.09,3.88-1.13,5.89-1.13s.2-7.04,.8-10.87c.61-3.82,4.26-.92,3.63-4.28-.63-3.36-1.26-6.3-3.78-5.04-2.52,1.26-3.99,4.41-6.09,3.57-2.11-.84-1.9-8.19-3.79-8.4-1.43-.16-2.97-1.04-3.55-1.91,.12-.32,.18-.67,.19-1.02,2.53-.42,15.76,1.54,19.96,.2,3.87-1.23,12.89-6.73,16.71-8.49,.74-.34,1.29-.54,1.56-.54,1.68,0,4.83,3.15,6.09,3.99,1.26,.84,4.41,2.73,2.73,4.2-1.56,1.36-8,2-9.41,5.95-.12,.31-.2,.63-.25,.98-.16,1.19,.07,2.2,.53,3.06,1.41,2.64,5.03,3.91,6.61,4.71,1.54,.77-3.15,4.27-5.75,7.15-.93,1.04-1.6,2-1.6,2.73,0,.63,.72,1.15,1.91,1.55,3.96,1.36,13.18,1.47,18.68,.34,7.14-1.47,19.74,7.35,17.43,12.18s-12.81,2.94-13.02,4.41c-.21,1.47,7.98-1.26,7.35,6.51-.63,7.77-9.24,4.41-9.66,9.45-.42,5.04-.63,17.65,1.05,19.75,1.68,2.1,7.14,.63,8.4,1.68s1.89,3.78,2.94,3.78,6.51,0,6.51,1.89,1.47,17.01,0,18.48Z"/><path class="cls-5" d="M252.61,147.49c0,1.57-.76,6.17-1.98,8.55h0c-.55,1.09-1.21,1.72-1.93,1.37-2.29-1.1-8.49-1.65-13.08-.97-4.59,.69-30.3,22.5-33.52,26.63-1.97,2.53-6.43,7.56-10.02,9.38h-.01c-2.26,1.17-4.18,1.04-4.89-1.8-.97-3.88-8.22-12.71-15.47-13.74-2.76-.4-5.53,.35-7.94,2.95-.65,.7-1.43,1.43-2.32,2.18h-.02c-11.04,9.31-38.68,21.59-40.59,20.32-2.06-1.38,.69-11.48,.69-14.7s-5.74-2.75-7.11-7.57c-1.38-4.82,4.59-13.54,16.06-19.28,11.48-5.74,27.55-2.76,33.29-7.35,5.74-4.59,5.97-19.97,8.26-22.5,2.3-2.52,31.04-21.36,33.29-22.76-.36,.36,.55,.68,2.12,.92,.05,.01,.1,.02,.16,.03,.2,.04,.41,.07,.64,.09,.16,.03,.33,.05,.51,.06h.02c2.01,.22,4.62,.34,7.05,.28,.06,0,.12,.01,.17,0h.18c.79,.02,1.26,.02,1.26,.02,2.53,4.36-7.75,23.43-3.39,23.43s15.38-11.02,24.33-11.48c8.96-.46,7.81,3.91,12.17,6.2,3.45,1.82,7.33,1.05,10.17,4.63,.75,.94,1.42,2.18,2,3.86,2.75,8.04-10.1,8.96-10.1,11.25Z"/><path class="cls-2" d="M266.03,179.28c-.6,3.83,1.21,10.87-.8,10.87s-2.91-.96-5.89,1.13c-3.62,2.55,1.54,8.09-1.25,10.28-2.78,2.19-4.87-.44-5.74-.66-.88-.22-.88-5.46-1.53-7.43-.66-1.97-3.07,0-4.6-1.53s-.21-12.03-3.28-13.12c-1.22-.44-3.49-.6-6-.55-3.77,.08-8.08,.63-10.18,1.42-3.08,1.15-1.76,7.04-2.14,9.34-.75,.65-1.51,1.31-2.28,1.99-1.59,.72-3.63,1.38-4.76,2.23-1.02,.76-1.15,2.34-2.46,4.04-.6,.78-1.44,1.58-2.72,2.33-.74,.45-1.63,.88-2.71,1.28-5,1.87-12.28,8.5-15.76,13.42-1.03,.65-1.8,1.01-2.22,1.03-4.38,.19-12.15,2.59-15.54,2.98-3.39,.4-4.78,1-6.98,2.79-2.19,1.8-5.18-.79-7.37,0-2.19,.8-2.79-6.57,0-7.77,2.79-1.19,10.96-3.19,11.16-4.38,.2-1.2,2.99-2.99,5.38-4.58,2.39-1.6,2.99-7.18,3.99-7.18s5.44-.8,7.97-2.99c.26-.22,.87-.84,1.75-1.76h.01c3.59-1.83,8.05-6.86,10.02-9.39,3.22-4.13,28.93-25.94,33.52-26.63,4.59-.68,10.79-.13,13.08,.97,.72,.35,1.38-.28,1.93-1.36,.67,2.08,2.05,4.27,2.01,6.15-.01,.35-.07,.7-.19,1.02,.58,.87,2.12,1.75,3.55,1.91,1.89,.21,1.68,7.56,3.79,8.4,2.1,.84,3.57-2.31,6.09-3.57,2.52-1.26,3.15,1.68,3.78,5.04s-3.02,.46-3.63,4.28Z"/><path class="cls-1" d="M252.64,162.2c-.01,.35-.07,.7-.19,1.02-.26,.71-.82,1.36-1.82,1.91-3.92,2.19-8.69,9.56-11.49,11.36-.31,.2-1.08,.82-2.2,1.78-3.77,.08-8.08,.63-10.18,1.42-3.08,1.15-1.76,7.04-2.14,9.34-.75,.65-1.51,1.31-2.28,1.99-1.59,.72-3.63,1.38-4.76,2.23-1.02,.76-1.15,2.34-2.46,4.04-.91,.78-1.82,1.56-2.72,2.33-.74,.45-1.63,.88-2.71,1.28-5,1.87-12.28,8.5-15.76,13.42-1.03,.65-1.8,1.01-2.22,1.03-4.38,.19-12.15,2.59-15.54,2.98-3.39,.4-4.78,1-6.98,2.79-2.19,1.8-5.18-.79-7.37,0-2.19,.8-2.79-6.57,0-7.77,2.79-1.19,10.96-3.19,11.16-4.38,.2-1.2,2.99-2.99,5.38-4.58,2.39-1.6,2.99-7.18,3.99-7.18s5.44-.8,7.97-2.99c.26-.22,.87-.84,1.75-1.76h.01c3.59-1.83,8.05-6.86,10.02-9.39,3.22-4.13,28.93-25.94,33.52-26.63,4.59-.68,10.79-.13,13.08,.97,.72,.35,1.38-.28,1.93-1.36,.67,2.08,2.05,4.27,2.01,6.15Z"/><path class="cls-5" d="M80.12,396.88c-3.58,0-10.36,1.99-14.54,3.38-4.19,1.4-8.97,9.17-11.56,11.76s-15.15,3.19-18.33,1.99c-3.19-1.19-23.12-2.19-27.5,0-4.39,2.19-7.38,4.59-7.18,2,.2-2.59,4.39-5.78,6.18-9.57,1.79-3.79,4.39-14.74,9.77-17.93,5.38-3.19,29.69-1.8,31.08-3.99,1.4-2.19-10.16-8.77-10.76-10.96-.6-2.19,2.25-6.37,5.38-7.37,.77-.25,1.5-.45,2.17-.61,.78,3.4,4.58,3.02,6.87,3.02,.13,0,.28-.03,.44-.09,.24,1.14,.53,2.26,.88,3.26,1.29,3.7-.79,6.18-1.19,7.77-.4,1.59-3.79,8.85-4.39,11.5-.59,2.65-1.79,8.23,0,8.23s9.77-7.97,9.97-17.34c.07-3.5,2.15-5.87,4.79-7.8,1.57,1.16,2.88,2.07,3.58,2.42,2.78,1.4,3.78,5.58,6.17,7.37,2.39,1.8,7.18,1,12.16,2.4,4.98,1.39-.4,10.56-3.99,10.56Z"/><path class="cls-1" d="M228.18,341.47c-.39,.79-.94,1.39-1.6,1.82-3.77,2.5-11.07-.21-13.12-.42h-.03c-.19-.05-.38-.09-.56-.13-5.3-1.19-10.07-1.63-14.18-1.71-6.81-.12-11.84,.75-14.57,.85-5.4,.2-5.76-2.59-8.95-2.99s-10.36,1.99-18.53,2.39c-8.17,.4-15.54-5.18-25.11,2.99-9.56,8.17-24.31,14.94-28.89,14.75-4.58-.2-14.75-10.17-17.34-9.97-2.59,.2-1.79,5.38-3.38,7.38-1.6,1.99-6.98,2.19-8.37,8.52-.88,3.97-6.91,5.95-11.35,9.18-2.64,1.93-4.72,4.3-4.79,7.8-.2,9.37-8.17,17.34-9.97,17.34s-.59-5.58,0-8.23c.6-2.65,3.99-9.91,4.39-11.5,.4-1.59,2.48-4.07,1.19-7.77-.35-1-.64-2.12-.88-3.26,.45-.16,.98-.52,1.55-1.03,2.72-2.36,6.41-7.67,6.41-7.67,0,0,7.64-11.08,7.64-13.37s2.96-3.06,6.83-4.97c3.87-1.91,6.54-13.75,12.27-18.72,5.73-4.96,16.04-5.34,22.54-5.34s17.19-8.41,20.24-10.7c.11-.08,.22-.16,.34-.24h.01c3.16-2.27,10.03-5.67,19.62-4.79,.22,.01,.44,.04,.66,.06,10.32,1.15,21.01,3.06,22.92,4.97,1.91,1.91,3.06,3.44,6.88,4.2,2.93,.59,23.18,10.39,33.99,15.1h.01c3.28,1.43,5.69,2.38,6.49,2.47,3.44,.39,10.7,6.88,7.64,12.99Z"/><path class="cls-5" d="M297.09,313.3c-1.55,3.32-.45,10.62-2,14.16-1.55,3.54-5.09,2.21-6.41,6.42-1.33,4.21-.45,8.41,2.65,16.16,3.1,7.74-4.87,9.29-6.42,13.06-.25,.61-.46,1.42-.64,2.39h0c-.96,5.08-1.19,14.22-2.68,17.75-1.77,4.2-9.1,2.16-9.86,6.75-.76,4.58-.38,6.87-3.82,8.02s-1.91,2.29-9.82,3.82c-7.91,1.53-12.34-1.91-12.34-4.97s-7.64-14.13-11.84-24.06c-4.2-9.93-12.6-15.66-16.42-17.19-3.82-1.53-.77-5.35-1.15-8.41-.38-3.05-3.44-3.05-3.44-4.2,0-.14,.19-.18,.53-.13h.03c2.05,.21,9.35,2.92,13.12,.42,.66-.43,1.21-1.03,1.6-1.82,3.06-6.11-4.2-12.6-7.64-12.99-.8-.09-3.21-1.04-6.49-2.47h-.01c-10.81-4.71-31.06-14.51-33.99-15.1-3.82-.76-4.97-2.29-6.88-4.2-1.91-1.91-12.6-3.82-22.92-4.97-.22-.02-.44-.05-.66-.06-9.59-.88-16.46,2.52-19.62,4.78h-.01c-.12,.09-.23,.17-.34,.25-3.05,2.29-13.75,10.7-20.24,10.7s-16.81,.38-22.54,5.34c-5.73,4.97-8.4,16.81-12.27,18.72-3.87,1.91-6.83,2.68-6.83,4.97s-7.64,13.37-7.64,13.37c0,0-3.69,5.31-6.41,7.67-.57,.51-1.1,.87-1.55,1.03-.16,.06-.31,.09-.44,.09-2.29,0-6.09,.38-6.87-3.02,0-.01-.01-.03-.01-.04-.76-3.44,6.49-11.84,4.97-16.04-1.53-4.21-13.76-15.28-17.96-16.81-4.2-1.53-3.82-7.26-3.05-13.76,.76-6.49,18.33-21.77,19.48-24.44,1.14-2.68-12.99-9.94-10.7-12.63,2.29-2.69,34.76-25.96,37.44-28.25,2.67-2.29,6.49-5.35,9.55-5.35s18.33-16.04,20.63-17.19c2.29-1.14,13.37-6.11,13.37-8.78s-6.12-3.06-6.12-8.41,3.06-8.4,8.41-11.52c1.91,1.27,29.55-11.01,40.59-20.31h.02c.89-.76,1.67-1.49,2.32-2.19,2.41-2.6,5.18-3.35,7.94-2.95,7.25,1.03,14.5,9.86,15.47,13.74,.71,2.84,2.63,2.97,4.89,1.81-.88,.92-1.49,1.54-1.75,1.76-2.53,2.19-6.98,2.99-7.97,2.99s-1.6,5.58-3.99,7.18c-2.39,1.59-5.18,3.38-5.38,4.58-.2,1.19-8.37,3.19-11.16,4.38-2.79,1.2-2.19,8.57,0,7.77,2.19-.79,5.18,1.8,7.37,0,2.2-1.79,3.59-2.39,6.98-2.79,3.39-.39,11.16-2.79,15.54-2.98,.42-.02,1.19-.38,2.22-1.03-1.41,2-2.19,3.72-1.94,4.73,.88,3.5,4.16,2.41,5.69,3.28,1.53,.88,8.96-.22,12.01,.66,3.04,.87,.67,8.75-1.95,10.5-2.63,1.74-10.94-.88-13.78-1.1-2.84-.22-9.84,3.94-9.84,7s2.62,2.19,4.54,1.09c1.91-1.09,23.45-.22,26.73-2.4,3.28-2.19,.22-9.41,1.53-12.69,1.31-3.28,5.03-1.09,8.75-1.96,3.72-.88-1.97-22.96-1.31-27.99,.65-5.03,2.84-3.94,4.15-3.72,1.31,.22,9.84,.22,12.25,.44,2.4,.21,3.71,17.93,2.84,18.36-.87,.44-5.03-2.4-7.22-1.09-2.18,1.31,2.19,11.15-1.8,13.67-3.99,2.52-10.5,5.89-7.77,9.88,2.73,3.99,1.05,6.09-1.05,9.66-2.1,3.57-6.72,3.57-10.5,4.83-3.79,1.26,2.1,10.71,2.1,12.6s-12.61,2.73-16.39,3.36c-3.78,.63-2.1,18.07-2.02,20.8,.07,2.73,12.31,1.26,13.78,3.15,1.48,1.89,7.57,1.05,9.25,1.05s1.47,4.83-1.26,5.46c-2.73,.63-4.2,3.57-5.88,4.2s-11.14-2.1-14.92,.21c-3.78,2.31,4.2,10.29,10.92,9.66,6.73-.63,21.85,3.57,27.31,3.57s-.42,13.45,6.3,13.87c6.72,.42,10.08-13.66,10.71-14.49,.63-.83,17.44-.22,19.54-.01,2.1,.21,1.68-5.04,2.73-8.82,1.05-3.78,6.3-4.41,7.77-4.2,1.47,.21,12.81-1.47,14.49-1.47,.42,0,.78-.2,1.08-.52,.2,1.32,.37,2.2,.52,2.58,2.66,6.86-2.65,11.51-4.2,14.83Z"/><path class="cls-5" d="M400.71,441.88c-3.99,8.32-21.97,23.3-25.63,28.63-3.66,5.32-9.65,5.66-14.65,5.66s-7.32,10.32-12.65,11.32c-5.33,.99-7.99,1.99-8.65,5.66-.67,3.66-10.99,3.99-14.99,0-3.99-4-7.65-6.66-10.98-4.67-3.33,2-1.67,5.42-4.99,7.54-3.33,2.12-15.32,.12-17.65,2.78-2.33,2.67,3.33,8.99-2,8.99s-3.33-3.99-7.99-4.99c-4.66-1-7.65,4.66-13.65,4.99-5.99,.34-2.33-6.65-6.32-8.99-4-2.33-7.99-6.65-8.32-14.64-.34-7.99-2.67-13.32-5.33-15.98-2.66-2.67-11.32-15.18-12.67-20.91s-14-.51-15.35-5.23c-1.34-4.72,8.1-9.27,6.07-13.99-2.02-4.72-27.98,4.04-26.97-16.02s12.94-18.55,11.7-31.7c-1.25-13.15-17.44-22.26-17.94-25.8-.51-3.54,4.72-1.85,6.24-5.73,.84-2.15,.75-5.08,.7-7.77,4.11,.08,8.88,.52,14.18,1.71l.03,.26c0,1.15,3.06,1.15,3.44,4.2,.38,3.06-2.67,6.88,1.15,8.41,3.82,1.53,12.22,7.26,16.42,17.19,4.2,9.93,11.84,21.01,11.84,24.06s4.43,6.5,12.34,4.97c7.91-1.53,6.38-2.67,9.82-3.82s3.06-3.44,3.82-8.02c.76-4.59,8.09-2.55,9.86-6.75,1.49-3.53,1.72-12.67,2.68-17.74h0c2.62-2.99,6.34-6.05,10.25-5.52,7.32,1,7.02-5.32,7.5-8.65,.49-3.33,10.47-4,13.8,0,3.33,3.99,4.33,5.66,8.99,3.33,4.66-2.33,16.65-11.32,19.98-11.32s9.65,2.52,12.98,2.92c3.33,.41,16.98-2.73,17.98,0,.99,2.74-4,13.72-2.67,21.05,1.33,7.32,14.65,17.31,17.98,20.97,3.33,3.66,4.33,27.3,5.66,30.96,1.33,3.66,7.99,14.32,3.99,22.64Z"/></g><g><polygon class="cls-6" points="46.99 386.52 42.41 400.26 37.83 386.52 37.83 357.35 32.85 357.35 32.85 334.45 69.48 334.45 69.48 357.35 46.99 357.35 46.99 386.52"/><polygon class="cls-7" points="46.99 386.52 42.41 400.26 37.83 386.52 37.83 357.35 32.85 357.35 32.85 334.45 69.48 334.45 69.48 357.35 46.99 357.35 46.99 386.52"/><text class="cls-8" transform="translate(47.76 350.54)"><tspan x="0" y="0">1</tspan></text></g><g><polygon class="cls-6" points="167.86 284.17 163.28 297.91 158.7 284.17 158.7 255 153.72 255 153.72 232.1 190.36 232.1 190.36 255 167.86 255 167.86 284.17"/><polygon class="cls-7" points="167.86 284.17 163.28 297.91 158.7 284.17 158.7 255 153.72 255 153.72 232.1 190.36 232.1 190.36 255 167.86 255 167.86 284.17"/><text class="cls-8" transform="translate(168.63 248.19)"><tspan x="0" y="0">2</tspan></text></g><g><polygon class="cls-6" points="151.85 214.33 147.27 228.06 142.69 214.33 142.69 185.15 137.71 185.15 137.71 162.25 174.34 162.25 174.34 185.15 151.85 185.15 151.85 214.33"/><polygon class="cls-7" points="151.85 214.33 147.27 228.06 142.69 214.33 142.69 185.15 137.71 185.15 137.71 162.25 174.34 162.25 174.34 185.15 151.85 185.15 151.85 214.33"/><text class="cls-8" transform="translate(152.62 178.34)"><tspan x="0" y="0">3</tspan></text></g><g><polygon class="cls-6" points="250.14 350.98 245.56 364.72 240.98 350.98 240.98 321.81 236 321.81 236 298.91 272.64 298.91 272.64 321.81 250.14 321.81 250.14 350.98"/><polygon class="cls-7" points="250.14 350.98 245.56 364.72 240.98 350.98 240.98 321.81 236 321.81 236 298.91 272.64 298.91 272.64 321.81 250.14 321.81 250.14 350.98"/><text class="cls-8" transform="translate(250.91 315)"><tspan x="0" y="0">4</tspan></text></g><g><polygon class="cls-6" points="262.95 416.16 258.37 429.9 253.79 416.16 253.79 386.99 248.81 386.99 248.81 364.09 285.45 364.09 285.45 386.99 262.95 386.99 262.95 416.16"/><polygon class="cls-7" points="262.95 416.16 258.37 429.9 253.79 416.16 253.79 386.99 248.81 386.99 248.81 364.09 285.45 364.09 285.45 386.99 262.95 386.99 262.95 416.16"/><text class="cls-8" transform="translate(263.72 380.18)"><tspan x="0" y="0">5</tspan></text></g></g></svg>