<?xml version="1.0" encoding="UTF-8"?><svg id="Calque_2" xmlns="http://www.w3.org/2000/svg" viewBox="0 0 268.5 339.23"><defs><style>.cls-1{fill:#15392f;font-family:ITCFranklinGothicStd-DmCp, 'ITC Franklin Gothic Std';font-size:10.69px;}.cls-2,.cls-3,.cls-4{fill:#aea895;}.cls-5,.cls-3{opacity:.2;}.cls-5,.cls-6,.cls-7,.cls-8{stroke-miterlimit:10;}.cls-5,.cls-8{fill:none;stroke:#807d6b;stroke-width:.5px;}.cls-6{fill:#807d6b;opacity:.44;}.cls-6,.cls-7{stroke:#15392f;stroke-width:.33px;}.cls-7{fill:#f1f1f1;}.cls-4{opacity:.3;}</style></defs><g id="Section_Map"><g><path class="cls-3" d="M138.23,72.52c-1.05-.16-1.66-.37-1.42-.61,0,0,.36,.39,1.42,.61Z"/><path class="cls-3" d="M143.83,72.82c-1.62,.04-3.37-.04-4.71-.19,1.8,.13,3.61,.17,4.71,.19Z"/><path class="cls-3" d="M138.23,72.52c-1.05-.16-1.66-.37-1.42-.61,0,0,.36,.39,1.42,.61Z"/><path class="cls-3" d="M143.83,72.82c-1.62,.04-3.37-.04-4.71-.19,1.8,.13,3.61,.17,4.71,.19Z"/><path class="cls-3" d="M168.44,107.99h0c0,.24-.05,.47-.13,.68-.13-.19-.19-.37-.15-.55,.01-.07,.11-.11,.28-.13Z"/><path class="cls-3" d="M143.36,131.45c-.1,.13-.21,.26-.33,.4l-.29,.29c-.32,.29-.71,.58-1.19,.86,.6-.51,1.21-1.04,1.82-1.56Z"/><path class="cls-3" d="M168.44,107.99h0c0,.24-.05,.47-.13,.68-.13-.19-.19-.37-.15-.55,.01-.07,.11-.11,.28-.13Z"/><path class="cls-3" d="M168.58,108.99c.14,.13,.31,.26,.49,.38-.19-.11-.35-.25-.49-.38Z"/><path class="cls-3" d="M169.68,109.68l.26,.1c-.09-.03-.17-.06-.26-.09l-.04-.02c-.07-.03-.13-.06-.2-.09-.02,0-.05-.02-.07-.04-.04-.02-.07-.04-.11-.06,.04,.03,.08,.04,.12,.06,.1,.05,.2,.1,.31,.14Z"/><path class="cls-3" d="M170.69,109.95s.08,.02,.12,.04c-.04-.02-.08-.02-.12-.03-.07,0-.15-.02-.22-.03-.05,0-.11-.02-.17-.03-.09-.03-.18-.05-.27-.08,.11,.03,.21,.06,.32,.09,.11,.02,.23,.04,.34,.05Z"/><path class="cls-3" d="M170.82,109.99h0s.03,0,.04,.01c.02,0,.04,.01,.05,.03,.01,0,.02,0,.03,.02,.02,.02,.05,.04,.07,.06-.03-.03-.07-.05-.1-.07-.03-.02-.06-.03-.09-.05Z"/><path class="cls-3" d="M177.29,113.18c.07-.03,.13-.06,.2-.09-.07,.03-.13,.06-.2,.09-1.68,.84-2.67,2.95-4.07,2.39-.13-.05-.25-.14-.36-.27,.11,.12,.23,.21,.36,.26,1.4,.56,2.39-1.54,4.07-2.39Z"/><path class="cls-3" d="M178.39,113.06s.01,0,.02,.01c0,0-.01,0-.02,0-.05-.03-.11-.05-.17-.05-.14-.03-.29-.03-.46,0,.19-.05,.36-.04,.51,0,.03,0,.06,.01,.09,.03,.01,0,.03,0,.03,.01Z"/><path class="cls-3" d="M168.44,107.99h0c0,.24-.05,.47-.13,.68-.13-.19-.19-.37-.15-.55,.01-.07,.11-.11,.28-.13Z"/><path class="cls-4" d="M245.9,43.36c-.15,.92-19.34,.61-20.56-.31-1.23-.92-2-4.6-4.14-4.14-2.15,.46-6.44,5.83-13.04,6.44-6.6,.61-19.33-2.15-21.33-1.23-1.99,.92-.92,5.98-1.08,9.36-.15,3.38-12.73-1.07-14.57,2.61-1.84,3.68-13.19,9.97-15.01,9.97s-6.63,4.29-7.55,5.83c-.35,.59-2.33,.86-4.56,.92h-.12s-.07,0-.11,0c-1.1-.01-2.91-.06-4.71-.19h-.01c-.12,0-.23-.02-.34-.04-.15-.01-.29-.03-.43-.06-.04,0-.07-.01-.11-.02-1.06-.22-1.42-.61-1.42-.61,.92-.92,16.57-14.12,18.41-15.19,1.84-1.07,1.69-7.82,2.77-8.9,1.07-1.08,3.07-1.23,5.67-1.68,2.61-.46,15.04-13.81,11.2-16.88-3.84-3.07-9.52-1.84-11.36-1.84s-3.38,1.84-8.13,2.61c-4.75,.77-6.14-1.99-4.91-8.28,1.22-6.29,9.05-9.66,10.74-11.36,1.68-1.68-2.31-5.06-1.84-5.98,.46-.92,5.53-4.14,7.98-4.14s5.5,2.89,7.52,2.76c2.45-.15,4.75-1.22,6.6-1.38,1.84-.15,2.91,1.84,4.14,1.68,1.23-.15,5.53-1.53,7.37-1.53s2.46,2.3,.46,5.37c-1.99,3.07-.61,7.67,1.69,8.9,2.3,1.23,7.51-3.07,12.89-2.3,5.37,.77,12.12,11.82,14.58,12.73,2.45,.92,13.04,1.38,15.65,2.61,2.61,1.22-.31,3.98,3.38,6.14,3.68,2.15,4.45,7.21,4.3,8.13Z"/><path class="cls-2" d="M138.23,72.52c-1.05-.16-1.66-.37-1.42-.61,0,0,.36,.39,1.42,.61Z"/><path class="cls-2" d="M143.83,72.82c-1.62,.04-3.37-.04-4.71-.19,1.8,.13,3.61,.17,4.71,.19Z"/><path class="cls-2" d="M138.23,72.52c-1.05-.16-1.66-.37-1.42-.61,0,0,.36,.39,1.42,.61Z"/><path class="cls-2" d="M143.83,72.82c-1.62,.04-3.37-.04-4.71-.19,1.8,.13,3.61,.17,4.71,.19Z"/><path class="cls-2" d="M168.44,107.99h0c0,.24-.05,.47-.13,.68-.13-.19-.19-.37-.15-.55,.01-.07,.11-.11,.28-.13Z"/><path class="cls-4" d="M221.09,177.48c-.98,.98-6.18-.28-7.16,1.12-.98,1.4,0,7.31-1.12,8.29-1.12,.98,.14,1.97-1.54,4.07-1.68,2.11-8.71,2.39-9.27,3.51-.42,.84-.76,2.23-1.38,2.87-.2,.21-.44,.35-.72,.35-1.12,0-8.7,1.12-9.68,.98-.33-.05-.96-.03-1.66,.11h0c-.18,.04-.36,.08-.55,.13-.19,.05-.37,.12-.56,.19-.12,.05-.25,.1-.37,.16-.18,.07-.35,.17-.52,.28-.25,.15-.49,.33-.7,.55-.38,.37-.68,.82-.83,1.38-.09,.32-.16,.66-.23,1l-.06,.36c-.05,.29-.09,.57-.13,.86-.01,.09-.03,.19-.03,.28-.04,.28-.07,.55-.11,.82-.03,.26-.07,.51-.11,.76-.06,.35-.13,.68-.23,.95-.02,.06-.04,.11-.06,.17-.04,.09-.08,.19-.13,.27-.02,.03-.03,.06-.06,.09-.03,.05-.05,.09-.09,.13-.08,.09-.17,.15-.27,.2-.03,0-.07,.02-.11,.03-.07,0-.13,0-.2,0-1.4-.14-12.64-.55-13.06,0h0s-.03,.04-.03,.06c0,.02-.01,.03-.03,.05,0,.01-.01,.03-.02,.05-.01,.03-.02,.06-.03,.09-.03,.06-.06,.13-.09,.21-.02,.06-.05,.13-.07,.2-.19,.51-.43,1.26-.76,2.11l-.12,.32c-.06,.14-.11,.28-.17,.43-.03,.07-.05,.14-.09,.21-.12,.29-.25,.59-.39,.9-.05,.11-.1,.22-.15,.33-.06,.11-.11,.21-.17,.33-.05,.11-.11,.22-.17,.33-.4,.76-.86,1.5-1.36,2.13-.14,.18-.29,.35-.45,.51h0l-.15,.16c-.05,.05-.11,.11-.16,.15-.09,.09-.19,.17-.29,.25-.09,.07-.17,.13-.25,.19-.17,.12-.35,.23-.54,.32-.18,.09-.37,.17-.56,.23-.1,.03-.2,.05-.29,.07-.27,.05-.53,.07-.82,.05-.03,0-.07,0-.09-.01h-.01c-.09,0-.17-.01-.24-.03-.08-.01-.16-.03-.23-.05-.06-.02-.12-.04-.17-.06-.11-.04-.21-.09-.31-.14-.09-.05-.18-.11-.27-.19-.08-.07-.15-.14-.23-.22-.14-.16-.25-.35-.35-.55-.05-.1-.09-.21-.13-.32-.04-.11-.08-.23-.11-.35-.02-.07-.04-.15-.05-.22-.03-.11-.05-.21-.07-.33-.03-.16-.05-.32-.07-.49-.02-.17-.03-.34-.05-.51l-.02-.52c-.04-1.06,0-2.17-.11-3.09,0-.07-.01-.15-.03-.23-.04-.29-.1-.57-.19-.82-.02-.06-.04-.12-.07-.17-.04-.12-.1-.23-.17-.33-.03-.05-.06-.09-.09-.13-.03-.05-.07-.09-.11-.13-.06-.06-.13-.12-.2-.17-.22-.15-.49-.23-.84-.23-3.65,0-13.76-2.81-18.25-2.39-.05,0-.11,0-.17,.01-.11,0-.23,.01-.35,.01-.13,0-.26,0-.39-.01-.2-.01-.41-.04-.61-.07-.11-.01-.22-.03-.33-.06-1.23-.26-2.44-.84-3.45-1.56-.11-.08-.23-.17-.33-.25-.33-.25-.63-.52-.9-.8-.11-.11-.21-.22-.31-.33-.3-.34-.55-.68-.73-1-.06-.11-.11-.22-.16-.33-.05-.11-.09-.21-.12-.32-.04-.13-.07-.24-.08-.35-.01-.09-.02-.17-.02-.25s0-.16,.02-.23c0-.09,.03-.17,.07-.26,.03-.07,.07-.15,.11-.21,.05-.07,.1-.13,.16-.19,.04-.05,.09-.09,.13-.12,.02-.02,.05-.04,.07-.05,.02-.02,.05-.04,.08-.05,2.53-1.54,8.85,.28,9.97-.14,.11-.05,.23-.1,.35-.18,.11-.08,.23-.16,.35-.26,.14-.11,.28-.25,.42-.39,.06-.05,.11-.11,.17-.16,.07-.07,.13-.13,.19-.19,.07-.08,.15-.15,.23-.23,.31-.3,.63-.59,1-.84,.18-.12,.37-.23,.57-.33,.1-.05,.21-.09,.31-.13,.11-.03,.22-.07,.33-.09,.07-.01,.13-.03,.19-.07,.04-.01,.08-.03,.12-.05,.08-.03,.15-.08,.23-.13,.05-.03,.11-.07,.15-.11,.09-.08,.19-.17,.27-.27,.04-.05,.08-.1,.11-.15l.08-.12c.04-.07,.09-.15,.12-.24,.11-.24,.19-.5,.23-.76,.02-.09,.03-.17,.03-.26,.04-.41-.01-.8-.15-1.08-.01-.03-.03-.07-.05-.1-.02-.03-.04-.07-.07-.09-.03-.04-.06-.07-.09-.09-.03-.03-.07-.05-.1-.07-.04-.02-.07-.03-.11-.05h0s-.08-.02-.12-.02c-.23,0-.59,.03-1.02,.05-.06,0-.13,0-.19,.01-.19,0-.39,.02-.61,.03-.8,.04-1.7,.05-2.49-.05-.15-.02-.29-.04-.43-.07h-.01c-.22-.04-.43-.09-.61-.16-.1-.03-.19-.07-.27-.11-.06-.03-.11-.06-.16-.09-.15-.09-.28-.2-.38-.32h0s-.03-.05-.05-.05c-.02-.03-.04-.05-.06-.06-.04-.04-.09-.07-.14-.09-.05-.03-.11-.06-.17-.09,0,0-.02-.01-.03-.01-.12-.04-.25-.09-.41-.13-.13-.03-.26-.06-.41-.09-.21-.04-.45-.07-.7-.1-.17-.02-.34-.04-.51-.05-.09-.01-.18-.02-.27-.03-.15-.01-.3-.03-.45-.03-.31-.02-.61-.04-.93-.06-.01,0-.03,0-.05,0-.39-.03-.8-.05-1.2-.08-.39-.03-.78-.06-1.15-.1-.31-.03-.61-.07-.88-.12-.28-.05-.53-.11-.76-.17-.14-.04-.26-.09-.38-.14-.05-.02-.11-.05-.15-.07-.11-.06-.21-.12-.29-.19-.09-.08-.15-.17-.19-.27h0c-.01-.05-.03-.11-.03-.17-.03-.92-.33-4.34-.29-7.55,0-.35,0-.7,.02-1.04,.01-.41,.03-.81,.07-1.2,.02-.27,.04-.52,.07-.78,0-.02,0-.04,0-.06,.03-.22,.05-.43,.09-.63,.03-.2,.07-.4,.11-.58,0-.01,0-.03,0-.04,.02-.09,.04-.19,.07-.27,.07-.27,.15-.51,.23-.73,.04-.09,.08-.18,.13-.27,.04-.09,.09-.17,.14-.23,.05-.07,.1-.14,.15-.2,.08-.08,.17-.15,.25-.21,.09-.05,.19-.09,.29-.11,.39-.06,.92-.13,1.52-.21,.12-.02,.25-.03,.37-.05,.25-.03,.52-.06,.8-.09,.16-.02,.32-.03,.49-.05,1.19-.14,2.51-.29,3.71-.48h0c.6-.09,1.18-.19,1.69-.3,.62-.13,1.16-.27,1.56-.43,.5-.19,.8-.41,.8-.64,0-1.01-2.51-5.24-2.23-7.33,0-.08,.02-.16,.05-.23,0-.01,0-.03,0-.03,.02-.07,.04-.14,.07-.2,0-.02,.01-.03,.02-.05,.04-.07,.08-.15,.13-.21,.05-.05,.09-.1,.15-.15,.11-.09,.24-.16,.39-.21,.63-.21,1.3-.37,1.97-.53l.5-.12c.17-.04,.33-.08,.49-.12,.33-.08,.65-.17,.97-.27,.16-.05,.31-.1,.47-.16,.61-.23,1.18-.52,1.67-.92,.12-.1,.23-.21,.35-.33,.23-.23,.43-.49,.6-.79,1.14-1.94,2.09-3.23,1.43-5.07,0-.03-.01-.06-.03-.09-.02-.06-.05-.12-.07-.18-.05-.13-.12-.27-.19-.4-.06-.11-.13-.23-.2-.35-.07-.12-.15-.24-.23-.37-.3-.44-.43-.87-.43-1.28,0-.09,0-.18,.02-.27,0-.09,.03-.17,.05-.25,0,0,0-.01,0-.02,.02-.08,.05-.16,.08-.23,0-.02,.01-.04,.02-.05,.03-.08,.07-.15,.11-.23,.09-.17,.19-.34,.32-.51s.27-.33,.42-.49c.05-.06,.11-.12,.17-.17,.39-.38,.86-.75,1.34-1.11,.16-.12,.33-.23,.5-.35,.25-.17,.51-.34,.77-.5,.04-.03,.08-.05,.12-.07,.27-.17,.55-.34,.82-.51,.23-.14,.45-.28,.67-.41,.07-.04,.14-.08,.21-.13,.06-.04,.11-.08,.17-.12,.05-.04,.1-.09,.15-.13,.08-.07,.15-.16,.22-.25,.01-.01,.03-.03,.03-.04,.06-.08,.11-.17,.16-.25,.05-.07,.08-.15,.11-.23,0-.01,.01-.03,.01-.03,.03-.06,.05-.11,.07-.17,.05-.14,.09-.28,.12-.43,.02-.07,.03-.14,.05-.21,.03-.22,.06-.45,.07-.69,0-.08,0-.15,0-.24,.01-.38,0-.79-.03-1.19-.01-.21-.03-.42-.05-.63-.01-.11-.03-.21-.03-.32-.04-.31-.08-.63-.11-.94-.03-.29-.07-.58-.1-.86v-.05c-.02-.19-.03-.37-.05-.54,0-.08-.01-.15,0-.23,0-.07-.01-.14,0-.21,0-.12,0-.23,0-.33,0-.1,.01-.19,.03-.28,0-.06,.02-.11,.03-.17,.02-.08,.05-.15,.07-.22,.02-.07,.05-.12,.09-.17,.02-.03,.05-.07,.08-.1,.03-.03,.07-.06,.11-.09,.14-.09,.29-.14,.45-.18,.25-.06,.53-.07,.82-.04,.22,.03,.44,.07,.67,.12,.11,.03,.22,.06,.33,.09,.18,.05,.36,.11,.53,.17,.09,.03,.17,.06,.25,.09,.34,.12,.66,.25,.93,.34,.14,.05,.26,.09,.37,.11,.06,.01,.11,.02,.16,.03,.13,.02,.23,.02,.29-.01h0c.15-.08,.21-.94,.17-2.17,0-.19-.01-.37-.03-.57,0-.18-.01-.36-.03-.55,0-.13-.01-.27-.03-.41-.06-.96-.16-2.03-.29-3.06-.03-.22-.06-.43-.09-.64-.13-.93-.29-1.81-.47-2.57-.05-.21-.11-.42-.16-.61-.02-.1-.05-.19-.09-.28-.11-.36-.23-.66-.36-.9-.05-.11-.12-.21-.19-.29,0-.01-.01-.03-.03-.03-.02-.03-.03-.04-.05-.05-.01-.01-.02-.02-.03-.02-.08-.07-.15-.11-.23-.11-.86-.08-2.87-.11-4.69-.15-.15,0-.3,0-.44,0-.27,0-.54-.01-.8-.02-.42-.01-.8-.03-1.14-.03-.09,0-.17,0-.25-.01-.05,0-.09,0-.13,0-.14,0-.26-.01-.37-.02-.04,0-.08,0-.11,0-.05,0-.1-.01-.15-.01-.04,0-.08-.01-.11-.02-.15-.03-.32-.07-.49-.1-.17-.03-.36-.07-.54-.07-.23,0-.47,.05-.7,.19-.04,.03-.07,.05-.11,.08-.03,.03-.07,.07-.11,.1-.17,.16-.32,.39-.45,.72-.03,.07-.06,.14-.08,.21-.12,.35-.22,.8-.29,1.35-.34,2.57,1.81,11.83,1.72,16.29,0,.09,0,.18,0,.27-.01,.39-.05,.74-.11,1.04-.02,.1-.04,.19-.07,.28,0,0,0,.01,0,.02-.03,.09-.06,.18-.09,.26s-.07,.15-.11,.21c-.04,.07-.09,.12-.13,.17-.03,.03-.07,.06-.11,.09-.03,.02-.06,.03-.09,.05-.04,.02-.07,.03-.11,.04-2.11,.49-4.23-.49-5.35,.56-.04,.03-.07,.07-.11,.11-.06,.06-.11,.13-.15,.19-.05,.07-.11,.16-.15,.25-.03,.06-.05,.12-.08,.19-.62,1.56,.24,4.47-.01,6.54-.02,.14-.04,.27-.07,.4-.03,.13-.06,.25-.1,.37-.04,.13-.09,.24-.14,.35-.03,.06-.05,.11-.09,.16-.03,.05-.06,.11-.1,.15-.03,.05-.07,.1-.11,.14-.04,.05-.08,.09-.12,.13-.09,.09-.18,.16-.29,.23-2.19,1.46-16.59,.88-17.87,1.6-.29,.17-.61,.33-.92,.45-.11,.04-.21,.07-.31,.11-.38,.11-.74,.15-1.04,.08-.45-.12-.76-.51-.76-1.37,0-.2,.05-.41,.13-.61,.02-.05,.04-.1,.07-.15,0,0,0-.01,.01-.03,.05-.11,.11-.21,.17-.31,.06-.09,.12-.17,.19-.26,.05-.07,.1-.13,.16-.2,.11-.13,.23-.26,.36-.39,.06-.07,.13-.13,.21-.2,.03-.03,.05-.05,.08-.07,.09-.09,.19-.18,.3-.26,.02-.02,.04-.04,.06-.05,.09-.07,.17-.14,.27-.21,.11-.09,.23-.17,.34-.25s.23-.16,.35-.23c.24-.15,.48-.3,.73-.43,.21-.11,.42-.23,.63-.33,.03-.02,.07-.03,.1-.05,.37-.17,.73-.31,1.06-.41,.52-.16,.99-.24,1.36-.21,1.9,.15,7.45,1.9,9.21,.74,.15-.1,.29-.23,.43-.38,.07-.06,.13-.13,.18-.21,.06-.07,.12-.15,.17-.23,.1-.13,.19-.27,.28-.42,.06-.09,.11-.18,.16-.28,.34-.61,.63-1.34,.81-2.07,.03-.1,.05-.21,.07-.31,0-.02,0-.04,.01-.05,.02-.1,.04-.2,.05-.3,.02-.11,.03-.22,.05-.33,.01-.09,.02-.19,.03-.28,0-.11,.01-.23,.01-.34,0-.1,0-.19-.01-.29,0-.07,0-.13-.02-.2,0-.09-.03-.18-.05-.27-.04-.2-.11-.39-.21-.54-.03-.05-.07-.11-.11-.15-.03-.05-.07-.09-.13-.13-.05-.06-.12-.11-.19-.15h0c-.07-.05-.15-.07-.23-.1-2.04-.59-7,.15-8.03-.44-.13-.07-.27-.12-.43-.16-.16-.04-.33-.07-.5-.09-.35-.05-.74-.09-1.1-.17-.11-.03-.21-.05-.31-.09-.23-.08-.44-.19-.64-.33-.03-.03-.07-.05-.11-.09-.23-.2-.43-.47-.58-.86-.02-.06-.05-.12-.07-.19-.02-.07-.04-.13-.06-.21-.17-.68,.35-1.82,1.3-3.16,.73-1.02,1.7-2.17,2.8-3.28,.11-.11,.22-.23,.33-.33,.29-.29,.6-.58,.91-.87,.13-.13,.27-.25,.41-.37,.27-.25,.55-.49,.83-.72,.13-.12,.27-.23,.41-.35,1.6-1.31,3.23-2.39,4.63-2.95,.07-.03,.14-.05,.21-.08,.72-.27,1.32-.55,1.81-.86,.48-.28,.87-.57,1.19-.87l.29-.29c.13-.14,.23-.27,.33-.4,.49-.64,.74-1.25,.98-1.76,.05-.11,.1-.21,.16-.31,.08-.15,.17-.29,.27-.41,.03-.04,.07-.08,.11-.11l.12-.1c.19-.14,.42-.27,.67-.41,.19-.09,.39-.19,.59-.28,.63-.27,1.32-.53,1.92-.8,.51-.45,1.02-.9,1.52-1.33h0c.23-1.37-.44-4.62,.84-5.88,.17-.15,.35-.28,.59-.37,1.4-.53,4.28-.9,6.8-.95,1.68-.03,3.19,.07,4.01,.37,.13,.05,.25,.11,.35,.21,.03,.02,.06,.05,.08,.07,.03,.03,.05,.05,.07,.08,1.4,1.64,.77,7.48,1.69,8.4h0c.09,.09,.18,.17,.27,.22h0c.09,.05,.19,.09,.29,.13,.1,.04,.21,.05,.31,.07,0,0,.01,0,.01,0,.33,.04,.67,0,.98-.01,.36-.02,.69,0,.93,.19,.03,.03,.07,.07,.11,.11,.07,.09,.12,.19,.17,.32,.41,1.24,.43,4.39,.92,4.9,.01,.02,.03,.03,.05,.05,.01,.01,.03,.03,.05,.03,.11,.03,.23,.11,.39,.2,.15,.1,.32,.23,.52,.35,.43,.26,.98,.51,1.6,.46,.23-.02,.47-.08,.73-.2,.07-.03,.13-.07,.19-.1,.13-.07,.27-.16,.4-.27l.04-.04s.03-.02,.04-.03c.03-.02,.05-.05,.07-.07,1.46-1.48-1.43-4.82,.45-6.54,.07-.07,.15-.13,.23-.19,1.99-1.4,2.59-.76,3.94-.76,.07,0,.12-.01,.17-.03,.05-.03,.11-.05,.15-.09,.81-.76-.15-4.83,.21-7.14,.08-.51,.24-.84,.45-1.06,.03-.03,.06-.06,.09-.09,.35-.31,.8-.35,1.18-.43,.15-.03,.29-.06,.41-.13,.05-.03,.11-.07,.15-.11,.18-.17,.25-.47,.15-1.04-.26-1.4-.53-2.7-1.11-3.27-.05-.05-.1-.09-.15-.13-.05-.03-.09-.06-.14-.08,0,0-.01-.01-.02-.01,0,0-.02-.01-.03-.01-.01,0-.03,0-.05-.01-.01,0-.03-.01-.04-.01-.15-.05-.32-.05-.51,0-.04,0-.09,.02-.13,.03-.05,.01-.09,.03-.14,.05-.07,.03-.13,.05-.2,.09-1.68,.84-2.67,2.95-4.07,2.39-.13-.05-.25-.14-.36-.26-.89-1.02-1.01-4.16-1.76-5.09-.03-.03-.06-.07-.09-.1-.02-.02-.05-.05-.07-.06,0-.01-.01-.01-.03-.02-.01-.01-.03-.03-.05-.03-.05-.03-.11-.05-.17-.05-.11-.01-.23-.03-.34-.05-.06-.01-.13-.03-.19-.05-.05-.01-.09-.03-.13-.04-.03,0-.05-.01-.08-.03l-.26-.1s-.03,0-.04-.01c-.07-.03-.13-.06-.2-.09-.01,0-.02-.01-.03-.01h0s0,0-.01-.01c0,0-.01,0-.02,0h0s-.07-.04-.11-.07h0c-.06-.04-.12-.07-.18-.11-.19-.12-.35-.25-.49-.38-.07-.07-.13-.13-.19-.2-.03-.03-.05-.07-.08-.11h0c.08-.22,.12-.45,.13-.68,1.69-.28,10.53,1.03,13.34,.13,2.59-.82,8.62-4.5,11.17-5.67,.49-.23,.86-.36,1.04-.36,1.12,0,3.23,2.11,4.07,2.67,.84,.56,2.95,1.82,1.82,2.81-1.04,.91-5.35,1.34-6.29,3.98-.08,.21-.13,.42-.17,.66-.11,.8,.05,1.47,.35,2.05,.94,1.76,3.36,2.61,4.42,3.15,1.03,.51-2.11,2.85-3.84,4.78-.62,.7-1.07,1.34-1.07,1.82,0,.42,.48,.77,1.28,1.04,2.65,.91,8.81,.98,12.49,.23,4.77-.98,13.19,4.91,11.65,8.14-1.54,3.23-8.56,1.97-8.7,2.95-.14,.98,5.33-.84,4.91,4.35-.42,5.19-6.18,2.95-6.46,6.32-.28,3.37-.42,11.8,.7,13.2,1.12,1.4,4.77,.42,5.61,1.12,.84,.7,1.26,2.53,1.97,2.53s4.35,0,4.35,1.26,.98,11.37,0,12.35Z"/><path class="cls-2" d="M134.35,190.57c-.28-.05-.53-.1-.76-.17,.22,.06,.47,.12,.76,.17Z"/><path class="cls-2" d="M129.67,147.75c.37,.09,.76,.12,1.1,.17-.35-.05-.74-.08-1.1-.17Z"/><path class="cls-2" d="M139.97,148.72c-.07-.03-.15-.07-.23-.09-2.04-.59-7,.15-8.03-.44-.13-.07-.27-.13-.43-.17,.16,.04,.3,.09,.43,.16,1.02,.59,5.99-.15,8.03,.44,.09,.03,.17,.05,.23,.09Z"/><path class="cls-2" d="M140.61,149.7c-.05-.2-.11-.38-.21-.54,.1,.15,.17,.34,.21,.54Z"/><path class="cls-2" d="M141.77,191.66h0s-.03-.03-.05-.05c.02,0,.04,.03,.05,.05Z"/><path class="cls-2" d="M143.83,158.48c-.08,.09-.18,.17-.29,.24-2.19,1.46-16.59,.88-17.87,1.6-.29,.17-.61,.33-.92,.45,.31-.13,.63-.29,.92-.45,1.28-.73,15.67-.15,17.87-1.6,.11-.07,.2-.15,.29-.23Z"/><path class="cls-2" d="M148.07,192.38s-.08-.01-.12-.01c-.23,0-.58,.03-1.02,.05,.43-.03,.78-.05,1.02-.05,.04,0,.08,0,.12,.02Z"/><path class="cls-2" d="M150.53,148.88s-.07,.04-.11,.05c-2.11,.49-4.23-.49-5.35,.55,1.12-1.05,3.24-.07,5.35-.56,.04,0,.07-.02,.11-.04Z"/><path class="cls-2" d="M151.28,127.56c-.23,0-.47,.05-.7,.19,.22-.15,.46-.19,.7-.19Z"/><path class="cls-2" d="M152.42,127.74s-.08,0-.11-.01c-.15-.03-.32-.07-.49-.11,.17,.03,.35,.07,.49,.1,.03,0,.07,.01,.11,.02Z"/><path class="cls-2" d="M159.6,208.03c-.23-.14-.5-.22-.84-.22-3.65,0-13.76-2.81-18.25-2.39-.05,0-.11,0-.17,0,.05,0,.11,0,.17-.01,4.5-.42,14.6,2.39,18.25,2.39,.35,0,.62,.08,.84,.23Z"/><path class="cls-2" d="M160.73,128.13c-.08-.07-.15-.1-.23-.11-.86-.07-2.87-.11-4.69-.16,1.82,.04,3.84,.07,4.69,.15,.08,0,.15,.04,.23,.11Z"/><path class="cls-2" d="M161.4,129.43c-.11-.35-.23-.66-.36-.9,.13,.23,.25,.53,.36,.9Z"/><path class="cls-2" d="M165.43,216.2c-.73,.59-1.56,.94-2.47,.88-.03,0-.07-.01-.09-.02,.03,0,.06,.01,.09,.01,.91,.06,1.74-.29,2.47-.87Z"/><path class="cls-2" d="M168.58,108.99c.14,.13,.31,.26,.49,.38-.19-.11-.35-.25-.49-.38Z"/><path class="cls-2" d="M169.37,109.54c.1,.05,.21,.1,.31,.15-.01,0-.03,0-.04-.01-.07-.03-.13-.06-.2-.09-.02,0-.05-.02-.07-.04Z"/><path class="cls-2" d="M169.68,109.68l.26,.1c-.09-.03-.17-.06-.26-.09h0Z"/><path class="cls-2" d="M170.29,109.89c-.09-.03-.18-.05-.27-.08,.11,.03,.21,.06,.32,.09-.02,0-.03,0-.05,0Z"/><path class="cls-2" d="M170.85,110s-.03,0-.05-.02h0s.03,0,.04,.02Z"/><path class="cls-2" d="M170.47,109.92s-.08-.01-.12-.03c.11,.02,.23,.04,.34,.05,.04,0,.08,.02,.12,.04-.04-.02-.08-.02-.12-.03-.07,0-.15-.02-.22-.03Z"/><path class="cls-2" d="M170.93,110.05s-.02,0-.03-.01h0s.02,0,.03,.01Z"/><path class="cls-2" d="M173.22,115.57c-.13-.05-.25-.14-.36-.27,.11,.12,.23,.21,.36,.26,1.4,.56,2.39-1.54,4.07-2.39,.07-.03,.13-.06,.2-.09-.07,.03-.13,.06-.2,.09-1.68,.84-2.67,2.95-4.07,2.39Z"/><path class="cls-2" d="M177.76,113.01c.19-.05,.36-.04,.51,0-.01,0-.03,0-.05,0-.14-.03-.29-.03-.46,0Z"/><path class="cls-2" d="M178.41,113.07s-.01,0-.02,0h0s.01,0,.02,0Z"/><path class="cls-2" d="M183.38,207.38c-.06,.01-.13,.01-.2,0-1.4-.14-12.64-.55-13.06,0h0c.42-.56,11.66-.15,13.06-.01,.07,0,.13,0,.2,0Z"/><path class="cls-2" d="M183.77,207.15c-.07,.09-.17,.17-.27,.2,.1-.05,.19-.11,.27-.2Z"/><path class="cls-2" d="M186.54,199.55c-.25,.16-.49,.34-.7,.55,.21-.21,.45-.4,.7-.55Z"/><path class="cls-2" d="M200.61,197.35h0c-.2,.22-.44,.35-.72,.35-1.12,0-8.7,1.12-9.68,.98-.33-.05-.96-.03-1.66,.11,.7-.15,1.32-.16,1.66-.11,.98,.14,8.56-.98,9.68-.98,.28,0,.52-.13,.72-.35Z"/><path class="cls-4" d="M168.42,98.16c0,1.05-.51,4.12-1.32,5.71h0c-.37,.73-.81,1.15-1.29,.92-1.53-.74-5.67-1.1-8.74-.65-3.07,.46-20.25,15.04-22.4,17.8-1.32,1.69-4.3,5.05-6.7,6.27h0c-1.51,.78-2.79,.7-3.27-1.2-.65-2.59-5.49-8.5-10.34-9.18-1.84-.27-3.7,.23-5.31,1.97-.43,.47-.96,.96-1.55,1.46h-.01c-7.38,6.22-25.85,14.43-27.13,13.58-1.38-.92,.46-7.67,.46-9.83s-3.84-1.84-4.75-5.06c-.92-3.22,3.07-9.05,10.73-12.89,7.67-3.84,18.41-1.84,22.25-4.91,3.84-3.07,3.99-13.35,5.52-15.04,1.54-1.68,20.75-14.28,22.25-15.21-.24,.24,.37,.45,1.42,.61,.03,0,.07,.01,.11,.02,.13,.03,.27,.05,.43,.06,.11,.02,.22,.03,.34,.04h.01c1.34,.15,3.09,.23,4.71,.19,.04,0,.08,0,.11,0h.12c.53,.01,.84,.01,.84,.01,1.69,2.91-5.18,15.66-2.27,15.66s10.28-7.37,16.26-7.67c5.99-.31,5.22,2.61,8.13,4.14,2.31,1.22,4.9,.7,6.8,3.09,.5,.63,.95,1.46,1.34,2.58,1.84,5.37-6.75,5.99-6.75,7.52Z"/><path class="cls-4" d="M179.67,117.58s-.1,.08-.15,.11c-.12,.06-.25,.1-.41,.13-.38,.08-.82,.13-1.18,.43-.03,.02-.06,.05-.09,.09-.21,.22-.37,.55-.45,1.06-.36,2.31,.59,6.38-.21,7.14-.04,.04-.09,.07-.15,.09-.05,.01-.11,.03-.17,.03-1.34,0-1.94-.64-3.94,.76-.09,.06-.17,.13-.23,.19-1.88,1.72,1.01,5.06-.45,6.54-.02,.02-.04,.05-.07,.07-.01,.01-.03,.03-.04,.03-.01,.01-.03,.03-.04,.03-.13,.11-.27,.19-.4,.27-.06,.03-.13,.07-.19,.1-.25,.12-.49,.18-.73,.2-.63,.05-1.17-.2-1.6-.46-.2-.12-.37-.25-.52-.35-.15-.11-.28-.18-.39-.21-.02,0-.04-.01-.05-.02-.02-.01-.04-.03-.05-.05-.48-.51-.51-3.66-.92-4.9-.05-.13-.1-.23-.17-.32-.03-.04-.07-.08-.11-.11-.24-.2-.57-.21-.93-.19-.31,.01-.66,.05-.98,.01,0,0,0,0-.01,0-.11-.01-.21-.03-.31-.07-.09-.03-.19-.07-.29-.13h0c-.09-.06-.19-.13-.27-.22-.92-.92-.29-6.76-1.69-8.4-.02-.03-.04-.05-.07-.08-.02-.03-.05-.05-.08-.07-.1-.1-.22-.17-.35-.21-.82-.29-2.33-.4-4.01-.37,.75-.64,1.26-1.06,1.47-1.19,1.87-1.2,5.06-6.13,7.68-7.59,.67-.37,1.04-.8,1.22-1.27,.03,.03,.05,.07,.08,.11,.05,.07,.11,.13,.19,.2,.14,.13,.31,.27,.49,.38,.06,.03,.12,.07,.18,.11h0s.07,.05,.11,.06h0s.01,.01,.02,.01t.01,0h0s.01,.01,.03,.02c.07,.03,.13,.07,.2,.09,.01,0,.03,.01,.04,.01h0c.09,.04,.17,.07,.26,.1,.03,.01,.05,.02,.08,.03,.05,.01,.09,.03,.13,.04s.09,.03,.13,.04c.02,0,.04,0,.05,0,.04,.01,.08,.02,.12,.03,.07,.01,.15,.03,.22,.03,.02,0,.04,0,.06,.01,.02,0,.04,0,.06,.02h.01s.02,0,.03,.01c.02,0,.04,.01,.05,.03h0s.01,.01,.03,.02c.02,.02,.05,.04,.07,.06,.03,.03,.07,.07,.09,.1,.75,.93,.87,4.08,1.76,5.09,.11,.13,.23,.21,.36,.27,1.4,.56,2.39-1.54,4.07-2.39,.07-.03,.13-.07,.2-.09,.05-.01,.09-.03,.14-.05,.05-.01,.09-.03,.13-.03,.17-.03,.32-.03,.46,0,.01,0,.03,0,.05,0,.03,0,.06,.01,.09,.03,.01,0,.03,0,.03,.01h0s.01,0,.02,.01c.05,.02,.09,.05,.14,.08,.05,.04,.11,.08,.15,.13,.58,.57,.85,1.86,1.11,3.27,.11,.57,.03,.86-.15,1.04Z"/><path class="cls-2" d="M143.36,131.45c-.1,.13-.21,.26-.33,.4l-.29,.29c-.32,.29-.71,.58-1.19,.86,.6-.51,1.21-1.04,1.82-1.56Z"/><path class="cls-2" d="M168.44,107.99h0c0,.24-.05,.47-.13,.68-.13-.19-.19-.37-.15-.55,.01-.07,.11-.11,.28-.13Z"/><path class="cls-2" d="M168.58,108.99c.14,.13,.31,.26,.49,.38-.19-.11-.35-.25-.49-.38Z"/><path class="cls-2" d="M169.68,109.68l.26,.1c-.09-.03-.17-.06-.26-.09l-.04-.02c-.07-.03-.13-.06-.2-.09-.02,0-.05-.02-.07-.04-.04-.02-.07-.04-.11-.06,.04,.03,.08,.04,.12,.06,.1,.05,.2,.1,.31,.14Z"/><path class="cls-2" d="M170.69,109.95s.08,.02,.12,.04c-.04-.02-.08-.02-.12-.03-.07,0-.15-.02-.22-.03-.05,0-.11-.02-.17-.03-.09-.03-.18-.05-.27-.08,.11,.03,.21,.06,.32,.09,.11,.02,.23,.04,.34,.05Z"/><path class="cls-2" d="M170.82,109.99h0s.03,0,.04,.01c.02,0,.04,.01,.05,.03,.01,0,.02,0,.03,.02,.02,.02,.05,.04,.07,.06-.03-.03-.07-.05-.1-.07-.03-.02-.06-.03-.09-.05Z"/><path class="cls-2" d="M177.29,113.18c.07-.03,.13-.06,.2-.09-.07,.03-.13,.06-.2,.09-1.68,.84-2.67,2.95-4.07,2.39-.13-.05-.25-.14-.36-.27,.11,.12,.23,.21,.36,.26,1.4,.56,2.39-1.54,4.07-2.39Z"/><path class="cls-2" d="M178.39,113.06s.01,0,.02,.01c0,0-.01,0-.02,0-.05-.03-.11-.05-.17-.05-.14-.03-.29-.03-.46,0,.19-.05,.36-.04,.51,0,.03,0,.06,.01,.09,.03,.01,0,.03,0,.03,.01Z"/><path class="cls-2" d="M168.16,108.13c-.03,.17,.03,.36,.15,.55h0c-.18,.48-.55,.91-1.22,1.28-2.62,1.46-5.81,6.39-7.68,7.59-.21,.13-.72,.55-1.47,1.19-2.52,.05-5.4,.42-6.8,.95-.23,.09-.43,.21-.59,.37-1.28,1.26-.61,4.5-.84,5.87-.5,.43-1.01,.88-1.52,1.33-.59,.27-1.29,.53-1.92,.81-.21,.09-.41,.19-.59,.28-.25,.13-.47,.26-.67,.4-.04,.03-.08,.07-.12,.11-.04,.03-.08,.07-.11,.11-.11,.12-.19,.26-.27,.41-.06,.1-.11,.2-.16,.31-.24,.51-.48,1.12-.98,1.76-.61,.52-1.22,1.04-1.82,1.56-.49,.3-1.09,.59-1.81,.86-.07,.03-.14,.05-.21,.09-1.39,.56-3.03,1.64-4.63,2.95-.14,.11-.28,.23-.41,.35-.28,.23-.55,.47-.83,.72-.14,.13-.27,.25-.41,.37-.31,.28-.61,.57-.91,.87-.11,.11-.23,.22-.33,.33-1.1,1.12-2.07,2.26-2.8,3.28-.69,.43-1.2,.68-1.48,.69-2.93,.13-8.12,1.73-10.39,1.99-2.27,.27-3.19,.67-4.67,1.86-1.46,1.2-3.46-.53-4.93,0-1.46,.53-1.86-4.39,0-5.19,1.86-.8,7.33-2.13,7.46-2.93,.13-.8,2-2,3.6-3.06,1.6-1.07,2-4.8,2.67-4.8s3.64-.53,5.33-2c.17-.15,.58-.56,1.17-1.18h0c2.4-1.22,5.38-4.59,6.7-6.28,2.15-2.76,19.34-17.34,22.4-17.8,3.07-.45,7.21-.09,8.74,.65,.48,.23,.92-.19,1.29-.91,.45,1.39,1.37,2.85,1.34,4.11-.17,.03-.27,.07-.28,.13Z"/><path class="cls-2" d="M168.44,107.99h0c0,.24-.05,.47-.13,.68-.13-.19-.19-.37-.15-.55,.01-.07,.11-.11,.28-.13Z"/><path class="cls-4" d="M53.13,264.85c-2.39,0-6.92,1.33-9.72,2.26-2.8,.94-6,6.13-7.73,7.86-1.73,1.73-10.13,2.13-12.25,1.33-2.13-.8-15.45-1.46-18.38,0-2.93,1.46-4.93,3.07-4.8,1.34,.13-1.73,2.93-3.86,4.13-6.4,1.2-2.53,2.93-9.85,6.53-11.98,3.6-2.13,19.84-1.2,20.77-2.67,.94-1.46-6.79-5.86-7.19-7.33-.4-1.46,1.5-4.26,3.6-4.93,.51-.17,1-.3,1.45-.41,.52,2.27,3.06,2.02,4.59,2.02,.09,0,.19-.02,.29-.06,.16,.76,.35,1.51,.59,2.18,.86,2.47-.53,4.13-.8,5.19-.27,1.06-2.53,5.92-2.93,7.69-.39,1.77-1.2,5.5,0,5.5s6.53-5.33,6.66-11.59c.05-2.34,1.44-3.92,3.2-5.21,1.05,.78,1.92,1.38,2.39,1.62,1.86,.94,2.53,3.73,4.12,4.93,1.6,1.2,4.8,.67,8.13,1.6,3.33,.93-.27,7.06-2.67,7.06Z"/><path class="cls-2" d="M152.09,227.81c-.26,.53-.63,.93-1.07,1.22-2.52,1.67-7.4-.14-8.77-.28h-.02c-.13-.03-.25-.06-.37-.09-3.54-.8-6.73-1.09-9.48-1.14-4.55-.08-7.91,.5-9.74,.57-3.61,.13-3.85-1.73-5.98-2-2.13-.27-6.92,1.33-12.38,1.6-5.46,.27-10.39-3.46-16.78,2-6.39,5.46-16.25,9.99-19.31,9.86-3.06-.13-9.86-6.8-11.59-6.66-1.73,.13-1.2,3.6-2.26,4.93-1.07,1.33-4.67,1.46-5.59,5.69-.59,2.65-4.62,3.98-7.59,6.14-1.76,1.29-3.15,2.87-3.2,5.21-.13,6.26-5.46,11.59-6.66,11.59s-.39-3.73,0-5.5c.4-1.77,2.67-6.62,2.93-7.69,.27-1.06,1.66-2.72,.8-5.19-.23-.67-.43-1.42-.59-2.18,.3-.11,.65-.35,1.04-.69,1.82-1.58,4.28-5.13,4.28-5.13,0,0,5.11-7.41,5.11-8.94s1.98-2.05,4.57-3.32c2.59-1.28,4.37-9.19,8.2-12.51,3.83-3.32,10.72-3.57,15.07-3.57s11.49-5.62,13.53-7.15c.07-.05,.15-.11,.23-.16h0c2.11-1.52,6.7-3.79,13.11-3.2,.15,0,.29,.03,.44,.04,6.9,.77,14.04,2.05,15.32,3.32s2.05,2.3,4.6,2.81c1.96,.39,15.49,6.94,22.72,10.09h0c2.19,.96,3.8,1.59,4.34,1.65,2.3,.26,7.15,4.6,5.11,8.68Z"/><path class="cls-4" d="M198.15,208.98c-1.04,2.22-.3,7.1-1.34,9.46-1.04,2.37-3.4,1.48-4.28,4.29-.89,2.81-.3,5.62,1.77,10.8,2.07,5.17-3.26,6.21-4.29,8.73-.17,.41-.31,.95-.43,1.6h0c-.64,3.4-.8,9.5-1.79,11.86-1.18,2.81-6.08,1.44-6.59,4.51-.51,3.06-.25,4.59-2.55,5.36-2.3,.77-1.28,1.53-6.56,2.55-5.29,1.02-8.25-1.28-8.25-3.32s-5.11-9.44-7.91-16.08c-2.81-6.64-8.42-10.47-10.97-11.49-2.55-1.02-.51-3.58-.77-5.62-.25-2.04-2.3-2.04-2.3-2.81,0-.09,.13-.12,.35-.09h.02c1.37,.14,6.25,1.95,8.77,.28,.44-.29,.81-.69,1.07-1.22,2.05-4.08-2.81-8.42-5.11-8.68-.53-.06-2.15-.7-4.34-1.65h0c-7.23-3.15-20.76-9.7-22.72-10.09-2.55-.51-3.32-1.53-4.6-2.81s-8.42-2.55-15.32-3.32c-.15-.01-.29-.03-.44-.04-6.41-.59-11,1.68-13.11,3.19h0c-.08,.06-.15,.11-.23,.17-2.04,1.53-9.19,7.15-13.53,7.15s-11.24,.25-15.07,3.57c-3.83,3.32-5.61,11.24-8.2,12.51-2.59,1.28-4.57,1.79-4.57,3.32s-5.11,8.94-5.11,8.94c0,0-2.47,3.55-4.28,5.13-.38,.34-.74,.58-1.04,.69-.11,.04-.21,.06-.29,.06-1.53,0-4.07,.25-4.59-2.02,0,0,0-.02,0-.03-.51-2.3,4.34-7.91,3.32-10.72-1.02-2.81-9.2-10.21-12-11.24-2.81-1.02-2.55-4.85-2.04-9.2,.51-4.34,12.25-14.55,13.02-16.34,.76-1.79-8.68-6.64-7.15-8.44,1.53-1.8,23.23-17.35,25.02-18.88,1.78-1.53,4.34-3.58,6.38-3.58s12.25-10.72,13.79-11.49c1.53-.76,8.94-4.08,8.94-5.87s-4.09-2.05-4.09-5.62,2.05-5.61,5.62-7.7c1.28,.85,19.75-7.36,27.13-13.57h.01c.59-.51,1.12-1,1.55-1.46,1.61-1.74,3.46-2.24,5.31-1.97,4.85,.69,9.69,6.59,10.34,9.18,.47,1.9,1.76,1.99,3.27,1.21-.59,.61-1,1.03-1.17,1.18-1.69,1.46-4.67,2-5.33,2s-1.07,3.73-2.67,4.8c-1.6,1.06-3.46,2.26-3.6,3.06-.13,.8-5.59,2.13-7.46,2.93-1.86,.8-1.46,5.73,0,5.19,1.46-.53,3.46,1.2,4.93,0,1.47-1.2,2.4-1.6,4.67-1.86,2.27-.26,7.46-1.86,10.39-1.99,.28-.01,.8-.25,1.48-.69-.94,1.34-1.46,2.49-1.3,3.16,.02,.07,.04,.14,.06,.21,.02,.07,.05,.13,.07,.19,.15,.38,.35,.66,.58,.86,.03,.03,.07,.06,.11,.09,.2,.15,.41,.25,.64,.33,.11,.03,.21,.06,.31,.09,.37,.09,.75,.13,1.1,.17,.17,.03,.34,.05,.5,.09,.15,.04,.3,.09,.43,.17,1.02,.59,5.99-.15,8.03,.44,.09,.02,.16,.05,.23,.09h0c.07,.05,.14,.09,.19,.15,.05,.04,.1,.09,.13,.13,.04,.05,.07,.1,.11,.15,.09,.16,.16,.34,.21,.54,.02,.09,.04,.17,.05,.27,.01,.07,.02,.13,.02,.2,0,.09,.01,.19,.01,.29,0,.11,0,.23-.01,.34,0,.09-.01,.19-.03,.28-.01,.11-.03,.21-.05,.33-.01,.1-.03,.2-.05,.3,0,.01,0,.03-.01,.05-.02,.1-.05,.21-.07,.31-.18,.72-.47,1.45-.81,2.07-.05,.1-.1,.19-.16,.28-.09,.15-.18,.29-.28,.42-.05,.08-.11,.15-.17,.23-.05,.07-.11,.15-.18,.21-.14,.15-.28,.27-.43,.37-1.76,1.16-7.31-.59-9.21-.74-.37-.03-.84,.05-1.36,.22-.33,.1-.7,.24-1.06,.41-.03,.01-.07,.03-.1,.05-.21,.1-.42,.21-.63,.33-.25,.13-.49,.28-.73,.43-.12,.07-.23,.15-.35,.23s-.23,.16-.34,.25c-.09,.07-.18,.13-.27,.21-.02,.01-.04,.03-.06,.05-.11,.08-.21,.17-.3,.26-.03,.02-.05,.04-.08,.07-.07,.07-.15,.13-.21,.2-.13,.13-.25,.26-.36,.39-.06,.07-.11,.13-.16,.2-.07,.09-.13,.17-.19,.26-.07,.11-.13,.21-.17,.31,0,.01-.01,.02-.01,.03-.03,.05-.05,.1-.07,.15-.08,.21-.13,.41-.13,.61,0,.86,.31,1.25,.76,1.37,.3,.07,.66,.03,1.04-.08,.11-.03,.21-.07,.31-.11,.31-.12,.63-.27,.92-.45,1.28-.73,15.67-.15,17.87-1.6,.11-.07,.21-.15,.29-.24,.04-.04,.08-.09,.12-.13,.04-.04,.07-.09,.11-.14,.04-.05,.07-.1,.1-.15,.03-.05,.06-.1,.09-.16,.05-.11,.1-.22,.14-.35,.04-.12,.07-.24,.1-.37,.03-.13,.05-.26,.07-.4,.25-2.07-.61-4.97,.01-6.54,.03-.07,.05-.13,.08-.19,.05-.09,.1-.18,.15-.25,.04-.07,.09-.13,.15-.19,.04-.04,.07-.08,.11-.11,1.12-1.04,3.24-.06,5.35-.55,.04,0,.08-.02,.11-.05,.03-.01,.06-.03,.09-.05,.04-.03,.07-.05,.11-.09,.05-.05,.09-.1,.13-.17,.05-.06,.08-.13,.11-.21,.04-.08,.07-.17,.09-.26,0,0,0-.01,0-.02,.03-.09,.05-.18,.07-.28,.07-.29,.1-.65,.11-1.04,0-.09,0-.17,0-.27,.09-4.46-2.06-13.72-1.72-16.29,.07-.55,.17-1,.29-1.35,.02-.07,.05-.15,.08-.21,.13-.32,.28-.55,.45-.72,.03-.03,.07-.07,.11-.1,.04-.03,.07-.05,.11-.08,.22-.14,.46-.19,.7-.19,.18,0,.37,.03,.54,.07,.17,.04,.35,.08,.49,.11,.03,0,.07,.01,.11,.01,.05,0,.09,0,.15,.01,.03,0,.07,0,.11,0,.11,0,.23,.01,.37,.02,.04,0,.08,0,.13,0,.08,0,.17,0,.25,.01,.33,0,.72,.02,1.14,.03,.26,0,.53,.01,.8,.02,.14,0,.29,0,.44,0,1.82,.05,3.84,.09,4.69,.16,.08,0,.15,.04,.23,.11,0,0,.01,0,.03,.02,.02,.01,.04,.03,.05,.05,.01,0,.03,.02,.03,.03,.07,.08,.14,.18,.19,.29,.13,.23,.25,.54,.36,.9,.03,.09,.07,.18,.09,.28,.05,.19,.11,.4,.16,.61,.18,.76,.34,1.64,.47,2.57,.03,.21,.06,.42,.09,.64,.13,1.04,.23,2.1,.29,3.06,.01,.14,.02,.27,.03,.41,.01,.19,.02,.37,.03,.55,.01,.2,.02,.39,.03,.57,.03,1.23-.02,2.09-.17,2.16-.07,.03-.17,.03-.29,.02-.05,0-.1-.01-.16-.03-.11-.03-.23-.07-.37-.11-.27-.09-.59-.22-.93-.34-.08-.03-.17-.07-.25-.09-.17-.07-.35-.12-.53-.17-.11-.03-.23-.07-.33-.09-.23-.05-.45-.1-.67-.12-.29-.03-.57-.02-.82,.04-.16,.03-.31,.09-.45,.17-.04,.03-.08,.05-.11,.09-.03,.03-.06,.07-.08,.1-.04,.05-.07,.11-.09,.17-.03,.07-.05,.14-.07,.22-.01,.05-.03,.11-.03,.17-.01,.09-.03,.18-.03,.28,0,.1-.01,.21,0,.33,0,.07,0,.13,0,.21,0,.07,0,.15,0,.23,.01,.17,.03,.35,.05,.54v.05c.03,.27,.06,.56,.1,.86,.03,.3,.07,.62,.11,.94,0,.11,.02,.21,.03,.32,.02,.21,.04,.42,.05,.63,.03,.4,.05,.81,.03,1.19,0,.09,0,.16,0,.24-.01,.24-.04,.47-.07,.69-.01,.07-.03,.15-.05,.21-.03,.15-.07,.29-.12,.43-.02,.06-.04,.11-.07,.17,0,0,0,.02-.01,.03-.03,.08-.07,.16-.11,.23-.05,.09-.1,.17-.16,.25,0,.01-.02,.03-.03,.04-.07,.09-.14,.17-.22,.25-.05,.05-.1,.09-.15,.13-.05,.04-.11,.08-.17,.11-.07,.05-.14,.09-.21,.13-.21,.13-.43,.27-.67,.41-.27,.16-.54,.33-.82,.51-.04,.02-.08,.05-.12,.07-.26,.16-.51,.33-.77,.5-.17,.11-.34,.23-.5,.35-.49,.35-.96,.72-1.34,1.11-.07,.05-.13,.11-.17,.17-.16,.16-.3,.33-.42,.49-.13,.17-.24,.33-.32,.51-.05,.07-.08,.15-.11,.23,0,.01-.01,.03-.02,.05-.03,.07-.06,.15-.08,.23,0,0,0,.01,0,.02-.03,.09-.05,.17-.05,.25-.01,.09-.02,.18-.02,.27,0,.41,.13,.84,.43,1.28,.09,.13,.17,.25,.23,.37,.07,.11,.14,.23,.2,.35,.07,.13,.14,.27,.19,.4,.03,.06,.05,.12,.07,.18,.01,.03,.02,.06,.03,.09,.66,1.84-.29,3.13-1.43,5.07-.17,.3-.37,.56-.6,.79-.11,.12-.23,.23-.35,.33-.49,.39-1.06,.69-1.67,.92-.15,.06-.31,.11-.47,.16-.31,.1-.64,.19-.97,.27-.17,.04-.33,.08-.49,.12l-.5,.12c-.67,.15-1.33,.31-1.97,.52-.15,.05-.28,.12-.39,.22-.05,.04-.11,.09-.15,.15-.05,.06-.09,.13-.13,.21,0,.01-.02,.03-.02,.05-.03,.06-.06,.13-.07,.2,0,0-.01,.02,0,.03-.03,.07-.04,.15-.05,.23-.29,2.09,2.23,6.32,2.23,7.33,0,.23-.29,.45-.8,.64-.41,.15-.94,.29-1.56,.43-.51,.11-1.09,.21-1.69,.3h0c-1.2,.19-2.52,.34-3.71,.48-.17,.02-.33,.03-.49,.05-.28,.03-.55,.06-.8,.09-.13,.01-.25,.03-.37,.05-.61,.07-1.14,.13-1.52,.2-.11,.02-.2,.05-.29,.11-.09,.05-.18,.12-.25,.21-.06,.06-.11,.13-.15,.2-.05,.07-.1,.15-.14,.23-.05,.09-.09,.17-.13,.27-.09,.21-.17,.46-.23,.73-.03,.09-.05,.18-.07,.27,0,.01,0,.03,0,.04-.04,.18-.07,.38-.11,.58-.03,.2-.06,.41-.09,.63,0,.02,0,.04,0,.06-.03,.25-.05,.51-.07,.78-.03,.39-.05,.79-.07,1.2-.01,.34-.02,.69-.02,1.04-.04,3.21,.26,6.63,.29,7.55,0,.05,.01,.11,.03,.16h0c.04,.11,.1,.2,.19,.28,.07,.07,.18,.13,.29,.19,.05,.03,.1,.05,.15,.07,.12,.05,.24,.1,.38,.14,.22,.07,.47,.12,.76,.17,.27,.05,.57,.09,.88,.12,.37,.04,.76,.07,1.15,.1,.39,.03,.8,.05,1.2,.08,.02,0,.03,0,.05,0,.31,.02,.62,.04,.93,.06,.15,0,.3,.02,.45,.03,.09,0,.18,.01,.27,.03,.17,.01,.35,.03,.51,.05,.25,.03,.49,.06,.7,.1,.15,.03,.28,.05,.41,.09,.15,.04,.29,.09,.41,.13,0,0,.02,0,.03,.01,.06,.03,.12,.06,.17,.09,.05,.03,.1,.05,.14,.09,.02,.01,.04,.03,.06,.06,.02,.01,.04,.03,.05,.05,.1,.12,.23,.23,.38,.32,.05,.03,.1,.05,.16,.09,.09,.04,.17,.08,.27,.11,.19,.07,.39,.12,.61,.16h.01c.14,.03,.29,.05,.43,.07,.8,.1,1.7,.09,2.49,.05,.21-.01,.41-.03,.61-.03,.06,0,.13-.01,.19-.01,.43-.02,.79-.05,1.02-.05,.04,0,.08,0,.12,.01h0s.07,.03,.11,.05c.03,.01,.07,.04,.1,.07,.03,.02,.07,.05,.09,.09,.03,.03,.05,.06,.07,.09,.02,.03,.04,.07,.05,.1,.13,.27,.19,.67,.15,1.08,0,.09-.01,.17-.03,.26-.04,.26-.12,.52-.23,.76-.03,.09-.08,.17-.12,.24l-.08,.12c-.03,.05-.07,.11-.11,.15-.08,.1-.17,.19-.27,.27-.05,.04-.1,.08-.15,.11-.07,.05-.15,.09-.23,.13-.04,.02-.08,.03-.12,.05-.06,.03-.13,.05-.19,.06-.11,.03-.23,.06-.33,.1-.11,.03-.21,.08-.31,.13-.2,.09-.39,.21-.57,.33-.37,.25-.7,.54-1,.84-.08,.07-.15,.15-.23,.23-.07,.06-.13,.13-.19,.19-.05,.05-.11,.11-.17,.16-.14,.14-.28,.27-.42,.39-.11,.1-.23,.18-.35,.26-.11,.07-.23,.13-.35,.17-1.12,.42-7.45-1.4-9.97,.14-.03,.02-.05,.03-.08,.06-.03,.01-.05,.03-.07,.05-.05,.03-.09,.07-.13,.12-.07,.06-.12,.13-.16,.19-.05,.07-.08,.14-.11,.21-.03,.09-.06,.17-.07,.26-.01,.07-.02,.15-.02,.23s0,.16,.02,.25c.01,.11,.04,.23,.08,.35,.03,.11,.07,.21,.12,.32,.05,.11,.1,.21,.16,.33,.18,.33,.43,.66,.73,1,.09,.11,.19,.22,.31,.33,.27,.27,.57,.54,.9,.8,.11,.09,.22,.17,.33,.25,1.01,.72,2.22,1.3,3.45,1.56,.11,.03,.22,.05,.33,.06,.2,.03,.41,.06,.61,.07,.13,0,.26,.01,.39,.01,.12,0,.23,0,.35-.01,.05,0,.11,0,.17,0,4.5-.42,14.6,2.39,18.25,2.39,.34,0,.61,.08,.84,.22,.07,.05,.14,.11,.2,.17,.05,.04,.09,.08,.11,.13,.03,.04,.06,.08,.09,.13,.07,.1,.13,.21,.17,.33,.03,.05,.05,.11,.07,.17,.09,.24,.15,.52,.19,.82,.01,.07,.02,.15,.03,.23,.11,.92,.07,2.03,.11,3.09l.02,.52c.01,.17,.03,.35,.05,.51,.02,.17,.04,.33,.07,.49,.02,.11,.04,.22,.07,.33,.01,.07,.03,.15,.05,.22,.03,.12,.07,.24,.11,.35,.04,.11,.08,.22,.13,.32,.1,.2,.21,.39,.35,.55,.07,.08,.15,.15,.23,.22,.09,.07,.17,.13,.27,.19,.1,.05,.2,.1,.31,.14,.05,.02,.11,.04,.17,.06,.07,.02,.15,.03,.23,.05,.07,.02,.15,.03,.24,.03h.01s.06,.02,.09,.02c.28,.02,.55,0,.81-.05,0,0,0,0,0,0,.03,0,.05,0,.07-.01,.07-.01,.15-.03,.22-.06,.19-.05,.38-.13,.56-.23,.19-.09,.36-.2,.54-.32,.09-.06,.17-.13,.25-.19,.1-.08,.19-.16,.29-.25,.05-.05,.11-.1,.16-.15l.15-.15h0c.16-.17,.31-.33,.45-.51,.5-.63,.96-1.37,1.36-2.13,.06-.11,.11-.22,.17-.33,.05-.11,.11-.22,.17-.33,.05-.11,.1-.22,.15-.33,.14-.3,.27-.6,.39-.9,.03-.07,.06-.15,.09-.21,.06-.15,.11-.29,.17-.43l.12-.32c.33-.85,.57-1.6,.76-2.11,.02-.07,.05-.14,.07-.2,.03-.08,.05-.15,.09-.21,.01-.03,.02-.07,.03-.09,0-.02,.01-.03,.02-.05,.01-.02,.02-.03,.03-.05,0-.02,.02-.04,.03-.05,.42-.55,11.66-.15,13.06,0,.07,0,.14,0,.2,0,.04,0,.08-.02,.11-.03,.11-.03,.2-.11,.27-.2,.04-.04,.07-.08,.09-.13,.03-.03,.04-.05,.06-.09,.05-.08,.09-.17,.13-.27,.02-.05,.04-.11,.06-.17,.09-.27,.17-.59,.23-.95,.04-.24,.08-.49,.11-.76,.03-.26,.07-.53,.11-.82,0-.09,.02-.19,.03-.28,.04-.29,.08-.57,.13-.86l.06-.36c.07-.34,.14-.68,.23-1,.15-.56,.45-1.02,.83-1.38,.21-.21,.45-.39,.7-.55,.17-.11,.34-.21,.52-.28,.12-.06,.25-.11,.37-.16,.19-.07,.37-.13,.56-.19,.19-.05,.37-.09,.55-.13h0c.7-.14,1.33-.15,1.66-.11,.98,.14,8.56-.98,9.68-.98,.28,0,.52-.13,.72-.35,.13,.88,.25,1.46,.35,1.72,1.78,4.59-1.77,7.69-2.81,9.91Z"/><path class="cls-2" d="M130.78,147.93c-.35-.05-.74-.08-1.1-.17,.37,.09,.76,.12,1.1,.17Z"/><path class="cls-2" d="M133.59,190.4c.22,.06,.47,.12,.76,.17-.28-.05-.53-.1-.76-.17Z"/><path class="cls-2" d="M131.71,148.19c-.13-.07-.27-.13-.43-.17,.16,.04,.3,.09,.43,.16,1.02,.59,5.99-.15,8.03,.44,.09,.03,.17,.05,.23,.09-.07-.03-.15-.07-.23-.09-2.04-.59-7,.15-8.03-.44Z"/><path class="cls-2" d="M140.61,149.7c-.05-.2-.11-.38-.21-.54,.1,.15,.17,.34,.21,.54Z"/><path class="cls-2" d="M141.77,191.67s-.03-.04-.05-.05c.02,0,.04,.03,.05,.05h0Z"/><path class="cls-2" d="M143.54,158.72c-2.19,1.46-16.59,.88-17.87,1.6-.29,.17-.61,.33-.92,.45,.31-.13,.63-.29,.92-.45,1.28-.73,15.67-.15,17.87-1.6,.11-.07,.2-.15,.29-.23-.08,.09-.18,.17-.29,.24Z"/><path class="cls-2" d="M146.93,192.42c.43-.03,.78-.05,1.02-.05,.04,0,.08,0,.12,.02-.04,0-.08-.01-.12-.01-.23,0-.58,.03-1.02,.05Z"/><path class="cls-2" d="M145.06,149.48c1.12-1.05,3.24-.07,5.35-.56,.04,0,.07-.02,.11-.04-.03,.03-.07,.04-.11,.05-2.11,.49-4.23-.49-5.35,.55Z"/><path class="cls-2" d="M151.28,127.56c-.23,0-.47,.05-.7,.19,.22-.15,.46-.19,.7-.19Z"/><path class="cls-2" d="M152.31,127.73c-.15-.03-.32-.07-.49-.11,.17,.03,.35,.07,.49,.1,.03,0,.07,.01,.11,.02-.04,0-.08,0-.11-.01Z"/><path class="cls-2" d="M158.76,207.8c.35,0,.62,.08,.84,.23-.23-.14-.5-.22-.84-.22-3.65,0-13.76-2.81-18.25-2.39-.05,0-.11,0-.17,0,.05,0,.11,0,.17-.01,4.5-.42,14.6,2.39,18.25,2.39Z"/><path class="cls-2" d="M160.5,128.02c.08,0,.15,.04,.23,.11-.08-.07-.15-.1-.23-.11-.86-.07-2.87-.11-4.69-.16,1.82,.04,3.84,.07,4.69,.15Z"/><path class="cls-2" d="M161.03,128.53c.13,.23,.25,.53,.36,.9-.11-.35-.23-.66-.36-.9Z"/><path class="cls-2" d="M165.43,216.2c-.73,.59-1.56,.94-2.47,.88-.03,0-.07-.01-.09-.02,.03,0,.06,.01,.09,.01,.91,.06,1.74-.29,2.47-.87Z"/><path class="cls-2" d="M183.18,207.38c.07,0,.13,0,.2,0-.06,.01-.13,.01-.2,0-1.4-.14-12.64-.55-13.06,0h0c.42-.56,11.66-.15,13.06-.01Z"/><path class="cls-2" d="M183.5,207.35c.1-.05,.19-.11,.27-.2-.07,.09-.17,.17-.27,.2Z"/><path class="cls-2" d="M185.84,200.1c.21-.21,.45-.4,.7-.55-.25,.16-.49,.34-.7,.55Z"/><path class="cls-2" d="M200.61,197.35h0c-.2,.22-.44,.35-.72,.35-1.12,0-8.7,1.12-9.68,.98-.33-.05-.96-.03-1.66,.11,.7-.15,1.32-.16,1.66-.11,.98,.14,8.56-.98,9.68-.98,.28,0,.52-.13,.72-.35Z"/><path class="cls-4" d="M267.41,294.92c-2.67,5.56-14.68,15.57-17.13,19.14-2.45,3.56-6.45,3.78-9.79,3.78s-4.89,6.9-8.45,7.57c-3.56,.66-5.34,1.33-5.78,3.78-.45,2.45-7.35,2.67-10.02,0-2.67-2.67-5.11-4.45-7.34-3.12-2.23,1.34-1.12,3.62-3.34,5.04-2.23,1.42-10.24,.08-11.8,1.86-1.56,1.78,2.23,6.01-1.34,6.01s-2.23-2.67-5.34-3.34c-3.11-.67-5.11,3.11-9.12,3.34-4,.23-1.56-4.44-4.22-6.01-2.67-1.56-5.34-4.44-5.56-9.78-.23-5.34-1.78-8.9-3.56-10.68-1.78-1.78-7.57-10.15-8.47-13.98-.9-3.83-9.36-.34-10.26-3.5-.9-3.15,5.41-6.2,4.06-9.35-1.35-3.15-18.7,2.7-18.03-10.71,.68-13.41,8.65-12.4,7.82-21.19-.84-8.79-11.66-14.88-11.99-17.24-.34-2.37,3.15-1.24,4.17-3.83,.56-1.44,.5-3.4,.47-5.19,2.75,.05,5.94,.35,9.48,1.14l.02,.17c0,.77,2.05,.77,2.3,2.81,.25,2.05-1.78,4.6,.77,5.62,2.55,1.02,8.17,4.85,10.97,11.49,2.81,6.64,7.91,14.04,7.91,16.08s2.96,4.34,8.25,3.32c5.29-1.02,4.26-1.78,6.56-2.55,2.3-.77,2.05-2.3,2.55-5.36,.51-3.07,5.41-1.7,6.59-4.51,1-2.36,1.15-8.47,1.79-11.86h0c1.75-2,4.24-4.04,6.85-3.69,4.89,.67,4.69-3.56,5.01-5.78,.33-2.23,7-2.67,9.22,0,2.23,2.67,2.89,3.78,6.01,2.23,3.11-1.56,11.13-7.57,13.35-7.57s6.45,1.68,8.68,1.95c2.23,.27,11.35-1.82,12.02,0,.66,1.83-2.67,9.17-1.78,14.07,.89,4.89,9.79,11.57,12.02,14.02,2.23,2.45,2.89,18.25,3.78,20.69,.89,2.45,5.34,9.57,2.67,15.13Z"/><g><path class="cls-5" d="M138.23,72.52c-1.05-.16-1.66-.37-1.42-.61,0,0,.36,.39,1.42,.61Z"/><path class="cls-5" d="M143.83,72.82c-1.62,.04-3.37-.04-4.71-.19,1.8,.13,3.61,.17,4.71,.19Z"/><path class="cls-5" d="M138.23,72.52c-1.05-.16-1.66-.37-1.42-.61,0,0,.36,.39,1.42,.61Z"/><path class="cls-5" d="M143.83,72.82c-1.62,.04-3.37-.04-4.71-.19,1.8,.13,3.61,.17,4.71,.19Z"/><path class="cls-5" d="M168.44,107.99h0c0,.24-.05,.47-.13,.68-.13-.19-.19-.37-.15-.55,.01-.07,.11-.11,.28-.13Z"/><path class="cls-5" d="M143.36,131.45c-.1,.13-.21,.26-.33,.4l-.29,.29c-.32,.29-.71,.58-1.19,.86,.6-.51,1.21-1.04,1.82-1.56Z"/><path class="cls-5" d="M168.44,107.99h0c0,.24-.05,.47-.13,.68-.13-.19-.19-.37-.15-.55,.01-.07,.11-.11,.28-.13Z"/><path class="cls-5" d="M168.58,108.99c.14,.13,.31,.26,.49,.38-.19-.11-.35-.25-.49-.38Z"/><path class="cls-5" d="M169.68,109.68l.26,.1c-.09-.03-.17-.06-.26-.09l-.04-.02c-.07-.03-.13-.06-.2-.09-.02,0-.05-.02-.07-.04-.04-.02-.07-.04-.11-.06,.04,.03,.08,.04,.12,.06,.1,.05,.2,.1,.31,.14Z"/><path class="cls-5" d="M170.69,109.95s.08,.02,.12,.04c-.04-.02-.08-.02-.12-.03-.07,0-.15-.02-.22-.03-.05,0-.11-.02-.17-.03-.09-.03-.18-.05-.27-.08,.11,.03,.21,.06,.32,.09,.11,.02,.23,.04,.34,.05Z"/><path class="cls-5" d="M170.82,109.99h0s.03,0,.04,.01c.02,0,.04,.01,.05,.03,.01,0,.02,0,.03,.02,.02,.02,.05,.04,.07,.06-.03-.03-.07-.05-.1-.07-.03-.02-.06-.03-.09-.05Z"/><path class="cls-5" d="M177.29,113.18c.07-.03,.13-.06,.2-.09-.07,.03-.13,.06-.2,.09-1.68,.84-2.67,2.95-4.07,2.39-.13-.05-.25-.14-.36-.27,.11,.12,.23,.21,.36,.26,1.4,.56,2.39-1.54,4.07-2.39Z"/><path class="cls-5" d="M178.39,113.06s.01,0,.02,.01c0,0-.01,0-.02,0-.05-.03-.11-.05-.17-.05-.14-.03-.29-.03-.46,0,.19-.05,.36-.04,.51,0,.03,0,.06,.01,.09,.03,.01,0,.03,0,.03,.01Z"/><path class="cls-5" d="M168.44,107.99h0c0,.24-.05,.47-.13,.68-.13-.19-.19-.37-.15-.55,.01-.07,.11-.11,.28-.13Z"/><path class="cls-8" d="M245.9,43.36c-.15,.92-19.34,.61-20.56-.31-1.23-.92-2-4.6-4.14-4.14-2.15,.46-6.44,5.83-13.04,6.44-6.6,.61-19.33-2.15-21.33-1.23-1.99,.92-.92,5.98-1.08,9.36-.15,3.38-12.73-1.07-14.57,2.61-1.84,3.68-13.19,9.97-15.01,9.97s-6.63,4.29-7.55,5.83c-.35,.59-2.33,.86-4.56,.92h-.12s-.07,0-.11,0c-1.1-.01-2.91-.06-4.71-.19h-.01c-.12,0-.23-.02-.34-.04-.15-.01-.29-.03-.43-.06-.04,0-.07-.01-.11-.02-1.06-.22-1.42-.61-1.42-.61,.92-.92,16.57-14.12,18.41-15.19,1.84-1.07,1.69-7.82,2.77-8.9,1.07-1.08,3.07-1.23,5.67-1.68,2.61-.46,15.04-13.81,11.2-16.88-3.84-3.07-9.52-1.84-11.36-1.84s-3.38,1.84-8.13,2.61c-4.75,.77-6.14-1.99-4.91-8.28,1.22-6.29,9.05-9.66,10.74-11.36,1.68-1.68-2.31-5.06-1.84-5.98,.46-.92,5.53-4.14,7.98-4.14s5.5,2.89,7.52,2.76c2.45-.15,4.75-1.22,6.6-1.38,1.84-.15,2.91,1.84,4.14,1.68,1.23-.15,5.53-1.53,7.37-1.53s2.46,2.3,.46,5.37c-1.99,3.07-.61,7.67,1.69,8.9,2.3,1.23,7.51-3.07,12.89-2.3,5.37,.77,12.12,11.82,14.58,12.73,2.45,.92,13.04,1.38,15.65,2.61,2.61,1.22-.31,3.98,3.38,6.14,3.68,2.15,4.45,7.21,4.3,8.13Z"/><path class="cls-8" d="M138.23,72.52c-1.05-.16-1.66-.37-1.42-.61,0,0,.36,.39,1.42,.61Z"/><path class="cls-8" d="M143.83,72.82c-1.62,.04-3.37-.04-4.71-.19,1.8,.13,3.61,.17,4.71,.19Z"/><path class="cls-8" d="M138.23,72.52c-1.05-.16-1.66-.37-1.42-.61,0,0,.36,.39,1.42,.61Z"/><path class="cls-8" d="M143.83,72.82c-1.62,.04-3.37-.04-4.71-.19,1.8,.13,3.61,.17,4.71,.19Z"/><path class="cls-8" d="M168.44,107.99h0c0,.24-.05,.47-.13,.68-.13-.19-.19-.37-.15-.55,.01-.07,.11-.11,.28-.13Z"/><path class="cls-8" d="M221.09,177.48c-.98,.98-6.18-.28-7.16,1.12s0,7.31-1.12,8.29c-1.12,.98,.14,1.97-1.54,4.07-1.68,2.11-8.71,2.39-9.27,3.51-.42,.84-.76,2.23-1.38,2.87-.2,.21-.44,.35-.72,.35-1.12,0-8.7,1.12-9.68,.98-.33-.05-.96-.03-1.66,.11h0c-.18,.04-.36,.08-.55,.13-.19,.05-.37,.12-.56,.19-.12,.05-.25,.1-.37,.16-.18,.07-.35,.17-.52,.28-.25,.15-.49,.33-.7,.55-.38,.37-.68,.82-.83,1.38-.09,.32-.16,.66-.23,1l-.06,.36c-.05,.29-.09,.57-.13,.86-.01,.09-.03,.19-.03,.28-.04,.28-.07,.55-.11,.82-.03,.26-.07,.51-.11,.76-.06,.35-.13,.68-.23,.95-.02,.06-.04,.11-.06,.17-.04,.09-.08,.19-.13,.27-.02,.03-.03,.06-.06,.09-.03,.05-.05,.09-.09,.13-.08,.09-.17,.15-.27,.2-.03,0-.07,.02-.11,.03-.07,0-.13,0-.2,0-1.4-.14-12.64-.55-13.06,0h0s-.03,.04-.03,.06c0,.02-.01,.03-.03,.05,0,.01-.01,.03-.02,.05-.01,.03-.02,.06-.03,.09-.03,.06-.06,.13-.09,.21-.02,.06-.05,.13-.07,.2-.19,.51-.43,1.26-.76,2.11l-.12,.32c-.06,.14-.11,.28-.17,.43-.03,.07-.05,.14-.09,.21-.12,.29-.25,.59-.39,.9-.05,.11-.1,.22-.15,.33-.06,.11-.11,.21-.17,.33-.05,.11-.11,.22-.17,.33-.4,.76-.86,1.5-1.36,2.13-.14,.18-.29,.35-.45,.51h0l-.15,.16c-.05,.05-.11,.11-.16,.15-.09,.09-.19,.17-.29,.25-.09,.07-.17,.13-.25,.19-.17,.12-.35,.23-.54,.32-.18,.09-.37,.17-.56,.23-.1,.03-.2,.05-.29,.07-.27,.05-.53,.07-.82,.05-.03,0-.07,0-.09-.01h-.01c-.09,0-.17-.01-.24-.03-.08-.01-.16-.03-.23-.05-.06-.02-.12-.04-.17-.06-.11-.04-.21-.09-.31-.14-.09-.05-.18-.11-.27-.19-.08-.07-.15-.14-.23-.22-.14-.16-.25-.35-.35-.55-.05-.1-.09-.21-.13-.32-.04-.11-.08-.23-.11-.35-.02-.07-.04-.15-.05-.22-.03-.11-.05-.21-.07-.33-.03-.16-.05-.32-.07-.49-.02-.17-.03-.34-.05-.51l-.02-.52c-.04-1.06,0-2.17-.11-3.09,0-.07-.01-.15-.03-.23-.04-.29-.1-.57-.19-.82-.02-.06-.04-.12-.07-.17-.04-.12-.1-.23-.17-.33-.03-.05-.06-.09-.09-.13-.03-.05-.07-.09-.11-.13-.06-.06-.13-.12-.2-.17-.22-.15-.49-.23-.84-.23-3.65,0-13.76-2.81-18.25-2.39-.05,0-.11,0-.17,.01-.11,0-.23,.01-.35,.01-.13,0-.26,0-.39-.01-.2-.01-.41-.04-.61-.07-.11-.01-.22-.03-.33-.06-1.23-.26-2.44-.84-3.45-1.56-.11-.08-.23-.17-.33-.25-.33-.25-.63-.52-.9-.8-.11-.11-.21-.22-.31-.33-.3-.34-.55-.68-.73-1-.06-.11-.11-.22-.16-.33-.05-.11-.09-.21-.12-.32-.04-.13-.07-.24-.08-.35-.01-.09-.02-.17-.02-.25s0-.16,.02-.23c0-.09,.03-.17,.07-.26,.03-.07,.07-.15,.11-.21,.05-.07,.1-.13,.16-.19,.04-.05,.09-.09,.13-.12,.02-.02,.05-.04,.07-.05,.02-.02,.05-.04,.08-.05,2.53-1.54,8.85,.28,9.97-.14,.11-.05,.23-.1,.35-.18,.11-.08,.23-.16,.35-.26,.14-.11,.28-.25,.42-.39,.06-.05,.11-.11,.17-.16,.07-.07,.13-.13,.19-.19,.07-.08,.15-.15,.23-.23,.31-.3,.63-.59,1-.84,.18-.12,.37-.23,.57-.33,.1-.05,.21-.09,.31-.13,.11-.03,.22-.07,.33-.09,.07-.01,.13-.03,.19-.07,.04-.01,.08-.03,.12-.05,.08-.03,.15-.08,.23-.13,.05-.03,.11-.07,.15-.11,.09-.08,.19-.17,.27-.27,.04-.05,.08-.1,.11-.15l.08-.12c.04-.07,.09-.15,.12-.24,.11-.24,.19-.5,.23-.76,.02-.09,.03-.17,.03-.26,.04-.41-.01-.8-.15-1.08-.01-.03-.03-.07-.05-.1-.02-.03-.04-.07-.07-.09-.03-.04-.06-.07-.09-.09-.03-.03-.07-.05-.1-.07-.04-.02-.07-.03-.11-.05h0s-.08-.02-.12-.02c-.23,0-.59,.03-1.02,.05-.06,0-.13,0-.19,.01-.19,0-.39,.02-.61,.03-.8,.04-1.7,.05-2.49-.05-.15-.02-.29-.04-.43-.07h-.01c-.22-.04-.43-.09-.61-.16-.1-.03-.19-.07-.27-.11-.06-.03-.11-.06-.16-.09-.15-.09-.28-.2-.38-.32h0s-.03-.05-.05-.05c-.02-.03-.04-.05-.06-.06-.04-.04-.09-.07-.14-.09-.05-.03-.11-.06-.17-.09,0,0-.02-.01-.03-.01-.12-.04-.25-.09-.41-.13-.13-.03-.26-.06-.41-.09-.21-.04-.45-.07-.7-.1-.17-.02-.34-.04-.51-.05-.09-.01-.18-.02-.27-.03-.15-.01-.3-.03-.45-.03-.31-.02-.61-.04-.93-.06-.01,0-.03,0-.05,0-.39-.03-.8-.05-1.2-.08-.39-.03-.78-.06-1.15-.1-.31-.03-.61-.07-.88-.12-.28-.05-.53-.11-.76-.17-.14-.04-.26-.09-.38-.14-.05-.02-.11-.05-.15-.07-.11-.06-.21-.12-.29-.19-.09-.08-.15-.17-.19-.27h0c-.01-.05-.03-.11-.03-.17-.03-.92-.33-4.34-.29-7.55,0-.35,0-.7,.02-1.04,.01-.41,.03-.81,.07-1.2,.02-.27,.04-.52,.07-.78,0-.02,0-.04,0-.06,.03-.22,.05-.43,.09-.63,.03-.2,.07-.4,.11-.58,0-.01,0-.03,0-.04,.02-.09,.04-.19,.07-.27,.07-.27,.15-.51,.23-.73,.04-.09,.08-.18,.13-.27,.04-.09,.09-.17,.14-.23,.05-.07,.1-.14,.15-.2,.08-.08,.17-.15,.25-.21,.09-.05,.19-.09,.29-.11,.39-.06,.92-.13,1.52-.21,.12-.02,.25-.03,.37-.05,.25-.03,.52-.06,.8-.09,.16-.02,.32-.03,.49-.05,1.19-.14,2.51-.29,3.71-.48h0c.6-.09,1.18-.19,1.69-.3,.62-.13,1.16-.27,1.56-.43,.5-.19,.8-.41,.8-.64,0-1.01-2.51-5.24-2.23-7.33,0-.08,.02-.16,.05-.23,0-.01,0-.03,0-.03,.02-.07,.04-.14,.07-.2,0-.02,.01-.03,.02-.05,.04-.07,.08-.15,.13-.21,.05-.05,.09-.1,.15-.15,.11-.09,.24-.16,.39-.21,.63-.21,1.3-.37,1.97-.53l.5-.12c.17-.04,.33-.08,.49-.12,.33-.08,.65-.17,.97-.27,.16-.05,.31-.1,.47-.16,.61-.23,1.18-.52,1.67-.92,.12-.1,.23-.21,.35-.33,.23-.23,.43-.49,.6-.79,1.14-1.94,2.09-3.23,1.43-5.07,0-.03-.01-.06-.03-.09-.02-.06-.05-.12-.07-.18-.05-.13-.12-.27-.19-.4-.06-.11-.13-.23-.2-.35-.07-.12-.15-.24-.23-.37-.3-.44-.43-.87-.43-1.28,0-.09,0-.18,.02-.27,0-.09,.03-.17,.05-.25,0,0,0-.01,0-.02,.02-.08,.05-.16,.08-.23,0-.02,.01-.04,.02-.05,.03-.08,.07-.15,.11-.23,.09-.17,.19-.34,.32-.51s.27-.33,.42-.49c.05-.06,.11-.12,.17-.17,.39-.38,.86-.75,1.34-1.11,.16-.12,.33-.23,.5-.35,.25-.17,.51-.34,.77-.5,.04-.03,.08-.05,.12-.07,.27-.17,.55-.34,.82-.51,.23-.14,.45-.28,.67-.41,.07-.04,.14-.08,.21-.13,.06-.04,.11-.08,.17-.12,.05-.04,.1-.09,.15-.13,.08-.07,.15-.16,.22-.25,.01-.01,.03-.03,.03-.04,.06-.08,.11-.17,.16-.25,.05-.07,.08-.15,.11-.23,0-.01,.01-.03,.01-.03,.03-.06,.05-.11,.07-.17,.05-.14,.09-.28,.12-.43,.02-.07,.03-.14,.05-.21,.03-.22,.06-.45,.07-.69,0-.08,0-.15,0-.24,.01-.38,0-.79-.03-1.19-.01-.21-.03-.42-.05-.63-.01-.11-.03-.21-.03-.32-.04-.31-.08-.63-.11-.94-.03-.29-.07-.58-.1-.86v-.05c-.02-.19-.03-.37-.05-.54,0-.08-.01-.15,0-.23,0-.07-.01-.14,0-.21,0-.12,0-.23,0-.33,0-.1,.01-.19,.03-.28,0-.06,.02-.11,.03-.17,.02-.08,.05-.15,.07-.22,.02-.07,.05-.12,.09-.17,.02-.03,.05-.07,.08-.1,.03-.03,.07-.06,.11-.09,.14-.09,.29-.14,.45-.18,.25-.06,.53-.07,.82-.04,.22,.03,.44,.07,.67,.12,.11,.03,.22,.06,.33,.09,.18,.05,.36,.11,.53,.17,.09,.03,.17,.06,.25,.09,.34,.12,.66,.25,.93,.34,.14,.05,.26,.09,.37,.11,.06,.01,.11,.02,.16,.03,.13,.02,.23,.02,.29-.01h0c.15-.08,.21-.94,.17-2.17,0-.19-.01-.37-.03-.57,0-.18-.01-.36-.03-.55,0-.13-.01-.27-.03-.41-.06-.96-.16-2.03-.29-3.06-.03-.22-.06-.43-.09-.64-.13-.93-.29-1.81-.47-2.57-.05-.21-.11-.42-.16-.61-.02-.1-.05-.19-.09-.28-.11-.36-.23-.66-.36-.9-.05-.11-.12-.21-.19-.29,0-.01-.01-.03-.03-.03-.02-.03-.03-.04-.05-.05-.01-.01-.02-.02-.03-.02-.08-.07-.15-.11-.23-.11-.86-.08-2.87-.11-4.69-.15-.15,0-.3,0-.44,0-.27,0-.54-.01-.8-.02-.42-.01-.8-.03-1.14-.03-.09,0-.17,0-.25-.01-.05,0-.09,0-.13,0-.14,0-.26-.01-.37-.02-.04,0-.08,0-.11,0-.05,0-.1-.01-.15-.01-.04,0-.08-.01-.11-.02-.15-.03-.32-.07-.49-.1-.17-.03-.36-.07-.54-.07-.23,0-.47,.05-.7,.19-.04,.03-.07,.05-.11,.08-.03,.03-.07,.07-.11,.1-.17,.16-.32,.39-.45,.72-.03,.07-.06,.14-.08,.21-.12,.35-.22,.8-.29,1.35-.34,2.57,1.81,11.83,1.72,16.29,0,.09,0,.18,0,.27-.01,.39-.05,.74-.11,1.04-.02,.1-.04,.19-.07,.28,0,0,0,.01,0,.02-.03,.09-.06,.18-.09,.26s-.07,.15-.11,.21c-.04,.07-.09,.12-.13,.17-.03,.03-.07,.06-.11,.09-.03,.02-.06,.03-.09,.05-.04,.02-.07,.03-.11,.04-2.11,.49-4.23-.49-5.35,.56-.04,.03-.07,.07-.11,.11-.06,.06-.11,.13-.15,.19-.05,.07-.11,.16-.15,.25-.03,.06-.05,.12-.08,.19-.62,1.56,.24,4.47-.01,6.54-.02,.14-.04,.27-.07,.4-.03,.13-.06,.25-.1,.37-.04,.13-.09,.24-.14,.35-.03,.06-.05,.11-.09,.16-.03,.05-.06,.11-.1,.15-.03,.05-.07,.1-.11,.14-.04,.05-.08,.09-.12,.13-.09,.09-.18,.16-.29,.23-2.19,1.46-16.59,.88-17.87,1.6-.29,.17-.61,.33-.92,.45-.11,.04-.21,.07-.31,.11-.38,.11-.74,.15-1.04,.08-.45-.12-.76-.51-.76-1.37,0-.2,.05-.41,.13-.61,.02-.05,.04-.1,.07-.15,0,0,0-.01,.01-.03,.05-.11,.11-.21,.17-.31,.06-.09,.12-.17,.19-.26,.05-.07,.1-.13,.16-.2,.11-.13,.23-.26,.36-.39,.06-.07,.13-.13,.21-.2,.03-.03,.05-.05,.08-.07,.09-.09,.19-.18,.3-.26,.02-.02,.04-.04,.06-.05,.09-.07,.17-.14,.27-.21,.11-.09,.23-.17,.34-.25s.23-.16,.35-.23c.24-.15,.48-.3,.73-.43,.21-.11,.42-.23,.63-.33,.03-.02,.07-.03,.1-.05,.37-.17,.73-.31,1.06-.41,.52-.16,.99-.24,1.36-.21,1.9,.15,7.45,1.9,9.21,.74,.15-.1,.29-.23,.43-.38,.07-.06,.13-.13,.18-.21,.06-.07,.12-.15,.17-.23,.1-.13,.19-.27,.28-.42,.06-.09,.11-.18,.16-.28,.34-.61,.63-1.34,.81-2.07,.03-.1,.05-.21,.07-.31,0-.02,0-.04,.01-.05,.02-.1,.04-.2,.05-.3,.02-.11,.03-.22,.05-.33,.01-.09,.02-.19,.03-.28,0-.11,.01-.23,.01-.34,0-.1,0-.19-.01-.29,0-.07,0-.13-.02-.2,0-.09-.03-.18-.05-.27-.04-.2-.11-.39-.21-.54-.03-.05-.07-.11-.11-.15-.03-.05-.07-.09-.13-.13-.05-.06-.12-.11-.19-.15h0c-.07-.05-.15-.07-.23-.1-2.04-.59-7,.15-8.03-.44-.13-.07-.27-.12-.43-.16-.16-.04-.33-.07-.5-.09-.35-.05-.74-.09-1.1-.17-.11-.03-.21-.05-.31-.09-.23-.08-.44-.19-.64-.33-.03-.03-.07-.05-.11-.09-.23-.2-.43-.47-.58-.86-.02-.06-.05-.12-.07-.19-.02-.07-.04-.13-.06-.21-.17-.68,.35-1.82,1.3-3.16,.73-1.02,1.7-2.17,2.8-3.28,.11-.11,.22-.23,.33-.33,.29-.29,.6-.58,.91-.87,.13-.13,.27-.25,.41-.37,.27-.25,.55-.49,.83-.72,.13-.12,.27-.23,.41-.35,1.6-1.31,3.23-2.39,4.63-2.95,.07-.03,.14-.05,.21-.08,.72-.27,1.32-.55,1.81-.86,.48-.28,.87-.57,1.19-.87l.29-.29c.13-.14,.23-.27,.33-.4,.49-.64,.74-1.25,.98-1.76,.05-.11,.1-.21,.16-.31,.08-.15,.17-.29,.27-.41,.03-.04,.07-.08,.11-.11l.12-.1c.19-.14,.42-.27,.67-.41,.19-.09,.39-.19,.59-.28,.63-.27,1.32-.53,1.92-.8,.51-.45,1.02-.9,1.52-1.33h0c.23-1.37-.44-4.62,.84-5.88,.17-.15,.35-.28,.59-.37,1.4-.53,4.28-.9,6.8-.95,1.68-.03,3.19,.07,4.01,.37,.13,.05,.25,.11,.35,.21,.03,.02,.06,.05,.08,.07,.03,.03,.05,.05,.07,.08,1.4,1.64,.77,7.48,1.69,8.4h0c.09,.09,.18,.17,.27,.22h0c.09,.05,.19,.09,.29,.13,.1,.04,.21,.05,.31,.07,0,0,.01,0,.01,0,.33,.04,.67,0,.98-.01,.36-.02,.69,0,.93,.19,.03,.03,.07,.07,.11,.11,.07,.09,.12,.19,.17,.32,.41,1.24,.43,4.39,.92,4.9,.01,.02,.03,.03,.05,.05,.01,.01,.03,.03,.05,.03,.11,.03,.23,.11,.39,.2,.15,.1,.32,.23,.52,.35,.43,.26,.98,.51,1.6,.46,.23-.02,.47-.08,.73-.2,.07-.03,.13-.07,.19-.1,.13-.07,.27-.16,.4-.27l.04-.04s.03-.02,.04-.03c.03-.02,.05-.05,.07-.07,1.46-1.48-1.43-4.82,.45-6.54,.07-.07,.15-.13,.23-.19,1.99-1.4,2.59-.76,3.94-.76,.07,0,.12-.01,.17-.03,.05-.03,.11-.05,.15-.09,.81-.76-.15-4.83,.21-7.14,.08-.51,.24-.84,.45-1.06,.03-.03,.06-.06,.09-.09,.35-.31,.8-.35,1.18-.43,.15-.03,.29-.06,.41-.13,.05-.03,.11-.07,.15-.11,.18-.17,.25-.47,.15-1.04-.26-1.4-.53-2.7-1.11-3.27-.05-.05-.1-.09-.15-.13-.05-.03-.09-.06-.14-.08,0,0-.01-.01-.02-.01,0,0-.02-.01-.03-.01-.01,0-.03,0-.05-.01-.01,0-.03-.01-.04-.01-.15-.05-.32-.05-.51,0-.04,0-.09,.02-.13,.03-.05,.01-.09,.03-.14,.05-.07,.03-.13,.05-.2,.09-1.68,.84-2.67,2.95-4.07,2.39-.13-.05-.25-.14-.36-.26-.89-1.02-1.01-4.16-1.76-5.09-.03-.03-.06-.07-.09-.1-.02-.02-.05-.05-.07-.06,0-.01-.01-.01-.03-.02-.01-.01-.03-.03-.05-.03-.05-.03-.11-.05-.17-.05-.11-.01-.23-.03-.34-.05-.06-.01-.13-.03-.19-.05-.05-.01-.09-.03-.13-.04-.03,0-.05-.01-.08-.03l-.26-.1s-.03,0-.04-.01c-.07-.03-.13-.06-.2-.09-.01,0-.02-.01-.03-.01h0s0,0-.01-.01c0,0-.01,0-.02,0h0s-.07-.04-.11-.07h0c-.06-.04-.12-.07-.18-.11-.19-.12-.35-.25-.49-.38-.07-.07-.13-.13-.19-.2-.03-.03-.05-.07-.08-.11h0c.08-.22,.12-.45,.13-.68,1.69-.28,10.53,1.03,13.34,.13,2.59-.82,8.62-4.5,11.17-5.67,.49-.23,.86-.36,1.04-.36,1.12,0,3.23,2.11,4.07,2.67,.84,.56,2.95,1.82,1.82,2.81-1.04,.91-5.35,1.34-6.29,3.98-.08,.21-.13,.42-.17,.66-.11,.8,.05,1.47,.35,2.05,.94,1.76,3.36,2.61,4.42,3.15,1.03,.51-2.11,2.85-3.84,4.78-.62,.7-1.07,1.34-1.07,1.82,0,.42,.48,.77,1.28,1.04,2.65,.91,8.81,.98,12.49,.23,4.77-.98,13.19,4.91,11.65,8.14-1.54,3.23-8.56,1.97-8.7,2.95-.14,.98,5.33-.84,4.91,4.35-.42,5.19-6.18,2.95-6.46,6.32-.28,3.37-.42,11.8,.7,13.2,1.12,1.4,4.77,.42,5.61,1.12,.84,.7,1.26,2.53,1.97,2.53s4.35,0,4.35,1.26,.98,11.37,0,12.35Z"/><path class="cls-8" d="M134.35,190.57c-.28-.05-.53-.1-.76-.17,.22,.06,.47,.12,.76,.17Z"/><path class="cls-8" d="M129.67,147.75c.37,.09,.76,.12,1.1,.17-.35-.05-.74-.08-1.1-.17Z"/><path class="cls-8" d="M139.97,148.72c-.07-.03-.15-.07-.23-.09-2.04-.59-7,.15-8.03-.44-.13-.07-.27-.13-.43-.17,.16,.04,.3,.09,.43,.16,1.02,.59,5.99-.15,8.03,.44,.09,.03,.17,.05,.23,.09Z"/><path class="cls-8" d="M140.61,149.7c-.05-.2-.11-.38-.21-.54,.1,.15,.17,.34,.21,.54Z"/><path class="cls-8" d="M141.77,191.66h0s-.03-.03-.05-.05c.02,0,.04,.03,.05,.05Z"/><path class="cls-8" d="M143.83,158.48c-.08,.09-.18,.17-.29,.24-2.19,1.46-16.59,.88-17.87,1.6-.29,.17-.61,.33-.92,.45,.31-.13,.63-.29,.92-.45,1.28-.73,15.67-.15,17.87-1.6,.11-.07,.2-.15,.29-.23Z"/><path class="cls-8" d="M148.07,192.38s-.08-.01-.12-.01c-.23,0-.58,.03-1.02,.05,.43-.03,.78-.05,1.02-.05,.04,0,.08,0,.12,.02Z"/><path class="cls-8" d="M150.53,148.88s-.07,.04-.11,.05c-2.11,.49-4.23-.49-5.35,.55,1.12-1.05,3.24-.07,5.35-.56,.04,0,.07-.02,.11-.04Z"/><path class="cls-8" d="M151.28,127.56c-.23,0-.47,.05-.7,.19,.22-.15,.46-.19,.7-.19Z"/><path class="cls-8" d="M152.42,127.74s-.08,0-.11-.01c-.15-.03-.32-.07-.49-.11,.17,.03,.35,.07,.49,.1,.03,0,.07,.01,.11,.02Z"/><path class="cls-8" d="M159.6,208.03c-.23-.14-.5-.22-.84-.22-3.65,0-13.76-2.81-18.25-2.39-.05,0-.11,0-.17,0,.05,0,.11,0,.17-.01,4.5-.42,14.6,2.39,18.25,2.39,.35,0,.62,.08,.84,.23Z"/><path class="cls-8" d="M160.73,128.13c-.08-.07-.15-.1-.23-.11-.86-.07-2.87-.11-4.69-.16,1.82,.04,3.84,.07,4.69,.15,.08,0,.15,.04,.23,.11Z"/><path class="cls-8" d="M161.4,129.43c-.11-.35-.23-.66-.36-.9,.13,.23,.25,.53,.36,.9Z"/><path class="cls-8" d="M165.43,216.2c-.73,.59-1.56,.94-2.47,.88-.03,0-.07-.01-.09-.02,.03,0,.06,.01,.09,.01,.91,.06,1.74-.29,2.47-.87Z"/><path class="cls-8" d="M168.58,108.99c.14,.13,.31,.26,.49,.38-.19-.11-.35-.25-.49-.38Z"/><path class="cls-8" d="M169.37,109.54c.1,.05,.21,.1,.31,.15-.01,0-.03,0-.04-.01-.07-.03-.13-.06-.2-.09-.02,0-.05-.02-.07-.04Z"/><path class="cls-8" d="M169.68,109.68l.26,.1c-.09-.03-.17-.06-.26-.09h0Z"/><path class="cls-8" d="M170.29,109.89c-.09-.03-.18-.05-.27-.08,.11,.03,.21,.06,.32,.09-.02,0-.03,0-.05,0Z"/><path class="cls-8" d="M170.85,110s-.03,0-.05-.02h0s.03,0,.04,.02Z"/><path class="cls-8" d="M170.47,109.92s-.08-.01-.12-.03c.11,.02,.23,.04,.34,.05,.04,0,.08,.02,.12,.04-.04-.02-.08-.02-.12-.03-.07,0-.15-.02-.22-.03Z"/><path class="cls-8" d="M170.93,110.05s-.02,0-.03-.01h0s.02,0,.03,.01Z"/><path class="cls-8" d="M173.22,115.57c-.13-.05-.25-.14-.36-.27,.11,.12,.23,.21,.36,.26,1.4,.56,2.39-1.54,4.07-2.39,.07-.03,.13-.06,.2-.09-.07,.03-.13,.06-.2,.09-1.68,.84-2.67,2.95-4.07,2.39Z"/><path class="cls-8" d="M177.76,113.01c.19-.05,.36-.04,.51,0-.01,0-.03,0-.05,0-.14-.03-.29-.03-.46,0Z"/><path class="cls-8" d="M178.41,113.07s-.01,0-.02,0h0s.01,0,.02,0Z"/><path class="cls-8" d="M183.38,207.38c-.06,.01-.13,.01-.2,0-1.4-.14-12.64-.55-13.06,0h0c.42-.56,11.66-.15,13.06-.01,.07,0,.13,0,.2,0Z"/><path class="cls-8" d="M183.77,207.15c-.07,.09-.17,.17-.27,.2,.1-.05,.19-.11,.27-.2Z"/><path class="cls-8" d="M186.54,199.55c-.25,.16-.49,.34-.7,.55,.21-.21,.45-.4,.7-.55Z"/><path class="cls-8" d="M200.61,197.35h0c-.2,.22-.44,.35-.72,.35-1.12,0-8.7,1.12-9.68,.98-.33-.05-.96-.03-1.66,.11,.7-.15,1.32-.16,1.66-.11,.98,.14,8.56-.98,9.68-.98,.28,0,.52-.13,.72-.35Z"/><path class="cls-8" d="M168.42,98.16c0,1.05-.51,4.12-1.32,5.71h0c-.37,.73-.81,1.15-1.29,.92-1.53-.74-5.67-1.1-8.74-.65-3.07,.46-20.25,15.04-22.4,17.8-1.32,1.69-4.3,5.05-6.7,6.27h0c-1.51,.78-2.79,.7-3.27-1.2-.65-2.59-5.49-8.5-10.34-9.18-1.84-.27-3.7,.23-5.31,1.97-.43,.47-.96,.96-1.55,1.46h-.01c-7.38,6.22-25.85,14.43-27.13,13.58-1.38-.92,.46-7.67,.46-9.83s-3.84-1.84-4.75-5.06c-.92-3.22,3.07-9.05,10.73-12.89,7.67-3.84,18.41-1.84,22.25-4.91,3.84-3.07,3.99-13.35,5.52-15.04,1.54-1.68,20.75-14.28,22.25-15.21-.24,.24,.37,.45,1.42,.61,.03,0,.07,.01,.11,.02,.13,.03,.27,.05,.43,.06,.11,.02,.22,.03,.34,.04h.01c1.34,.15,3.09,.23,4.71,.19,.04,0,.08,0,.11,0h.12c.53,.01,.84,.01,.84,.01,1.69,2.91-5.18,15.66-2.27,15.66s10.28-7.37,16.26-7.67c5.99-.31,5.22,2.61,8.13,4.14,2.31,1.22,4.9,.7,6.8,3.09,.5,.63,.95,1.46,1.34,2.58,1.84,5.37-6.75,5.99-6.75,7.52Z"/><path class="cls-8" d="M179.67,117.58s-.1,.08-.15,.11c-.12,.06-.25,.1-.41,.13-.38,.08-.82,.13-1.18,.43-.03,.02-.06,.05-.09,.09-.21,.22-.37,.55-.45,1.06-.36,2.31,.59,6.38-.21,7.14-.04,.04-.09,.07-.15,.09-.05,.01-.11,.03-.17,.03-1.34,0-1.94-.64-3.94,.76-.09,.06-.17,.13-.23,.19-1.88,1.72,1.01,5.06-.45,6.54-.02,.02-.04,.05-.07,.07-.01,.01-.03,.03-.04,.03-.01,.01-.03,.03-.04,.03-.13,.11-.27,.19-.4,.27-.06,.03-.13,.07-.19,.1-.25,.12-.49,.18-.73,.2-.63,.05-1.17-.2-1.6-.46-.2-.12-.37-.25-.52-.35-.15-.11-.28-.18-.39-.21-.02,0-.04-.01-.05-.02-.02-.01-.04-.03-.05-.05-.48-.51-.51-3.66-.92-4.9-.05-.13-.1-.23-.17-.32-.03-.04-.07-.08-.11-.11-.24-.2-.57-.21-.93-.19-.31,.01-.66,.05-.98,.01,0,0,0,0-.01,0-.11-.01-.21-.03-.31-.07-.09-.03-.19-.07-.29-.13h0c-.09-.06-.19-.13-.27-.22-.92-.92-.29-6.76-1.69-8.4-.02-.03-.04-.05-.07-.08-.02-.03-.05-.05-.08-.07-.1-.1-.22-.17-.35-.21-.82-.29-2.33-.4-4.01-.37,.75-.64,1.26-1.06,1.47-1.19,1.87-1.2,5.06-6.13,7.68-7.59,.67-.37,1.04-.8,1.22-1.27,.03,.03,.05,.07,.08,.11,.05,.07,.11,.13,.19,.2,.14,.13,.31,.27,.49,.38,.06,.03,.12,.07,.18,.11h0s.07,.05,.11,.06h0s.01,.01,.02,.01t.01,0h0s.01,.01,.03,.02c.07,.03,.13,.07,.2,.09,.01,0,.03,.01,.04,.01h0c.09,.04,.17,.07,.26,.1,.03,.01,.05,.02,.08,.03,.05,.01,.09,.03,.13,.04s.09,.03,.13,.04c.02,0,.04,0,.05,0,.04,.01,.08,.02,.12,.03,.07,.01,.15,.03,.22,.03,.02,0,.04,0,.06,.01,.02,0,.04,0,.06,.02h.01s.02,0,.03,.01c.02,0,.04,.01,.05,.03h0s.01,.01,.03,.02c.02,.02,.05,.04,.07,.06,.03,.03,.07,.07,.09,.1,.75,.93,.87,4.08,1.76,5.09,.11,.13,.23,.21,.36,.27,1.4,.56,2.39-1.54,4.07-2.39,.07-.03,.13-.07,.2-.09,.05-.01,.09-.03,.14-.05,.05-.01,.09-.03,.13-.03,.17-.03,.32-.03,.46,0,.01,0,.03,0,.05,0,.03,0,.06,.01,.09,.03,.01,0,.03,0,.03,.01h0s.01,0,.02,.01c.05,.02,.09,.05,.14,.08,.05,.04,.11,.08,.15,.13,.58,.57,.85,1.86,1.11,3.27,.11,.57,.03,.86-.15,1.04Z"/><path class="cls-8" d="M143.36,131.45c-.1,.13-.21,.26-.33,.4l-.29,.29c-.32,.29-.71,.58-1.19,.86,.6-.51,1.21-1.04,1.82-1.56Z"/><path class="cls-8" d="M168.44,107.99h0c0,.24-.05,.47-.13,.68-.13-.19-.19-.37-.15-.55,.01-.07,.11-.11,.28-.13Z"/><path class="cls-8" d="M168.58,108.99c.14,.13,.31,.26,.49,.38-.19-.11-.35-.25-.49-.38Z"/><path class="cls-8" d="M169.68,109.68l.26,.1c-.09-.03-.17-.06-.26-.09l-.04-.02c-.07-.03-.13-.06-.2-.09-.02,0-.05-.02-.07-.04-.04-.02-.07-.04-.11-.06,.04,.03,.08,.04,.12,.06,.1,.05,.2,.1,.31,.14Z"/><path class="cls-8" d="M170.69,109.95s.08,.02,.12,.04c-.04-.02-.08-.02-.12-.03-.07,0-.15-.02-.22-.03-.05,0-.11-.02-.17-.03-.09-.03-.18-.05-.27-.08,.11,.03,.21,.06,.32,.09,.11,.02,.23,.04,.34,.05Z"/><path class="cls-8" d="M170.82,109.99h0s.03,0,.04,.01c.02,0,.04,.01,.05,.03,.01,0,.02,0,.03,.02,.02,.02,.05,.04,.07,.06-.03-.03-.07-.05-.1-.07-.03-.02-.06-.03-.09-.05Z"/><path class="cls-8" d="M177.29,113.18c.07-.03,.13-.06,.2-.09-.07,.03-.13,.06-.2,.09-1.68,.84-2.67,2.95-4.07,2.39-.13-.05-.25-.14-.36-.27,.11,.12,.23,.21,.36,.26,1.4,.56,2.39-1.54,4.07-2.39Z"/><path class="cls-8" d="M178.39,113.06s.01,0,.02,.01c0,0-.01,0-.02,0-.05-.03-.11-.05-.17-.05-.14-.03-.29-.03-.46,0,.19-.05,.36-.04,.51,0,.03,0,.06,.01,.09,.03,.01,0,.03,0,.03,.01Z"/><path class="cls-8" d="M168.16,108.13c-.03,.17,.03,.36,.15,.55h0c-.18,.48-.55,.91-1.22,1.28-2.62,1.46-5.81,6.39-7.68,7.59-.21,.13-.72,.55-1.47,1.19-2.52,.05-5.4,.42-6.8,.95-.23,.09-.43,.21-.59,.37-1.28,1.26-.61,4.5-.84,5.87-.5,.43-1.01,.88-1.52,1.33-.59,.27-1.29,.53-1.92,.81-.21,.09-.41,.19-.59,.28-.25,.13-.47,.26-.67,.4-.04,.03-.08,.07-.12,.11-.04,.03-.08,.07-.11,.11-.11,.12-.19,.26-.27,.41-.06,.1-.11,.2-.16,.31-.24,.51-.48,1.12-.98,1.76-.61,.52-1.22,1.04-1.82,1.56-.49,.3-1.09,.59-1.81,.86-.07,.03-.14,.05-.21,.09-1.39,.56-3.03,1.64-4.63,2.95-.14,.11-.28,.23-.41,.35-.28,.23-.55,.47-.83,.72-.14,.13-.27,.25-.41,.37-.31,.28-.61,.57-.91,.87-.11,.11-.23,.22-.33,.33-1.1,1.12-2.07,2.26-2.8,3.28-.69,.43-1.2,.68-1.48,.69-2.93,.13-8.12,1.73-10.39,1.99-2.27,.27-3.19,.67-4.67,1.86-1.46,1.2-3.46-.53-4.93,0-1.46,.53-1.86-4.39,0-5.19,1.86-.8,7.33-2.13,7.46-2.93,.13-.8,2-2,3.6-3.06,1.6-1.07,2-4.8,2.67-4.8s3.64-.53,5.33-2c.17-.15,.58-.56,1.17-1.18h0c2.4-1.22,5.38-4.59,6.7-6.28,2.15-2.76,19.34-17.34,22.4-17.8,3.07-.45,7.21-.09,8.74,.65,.48,.23,.92-.19,1.29-.91,.45,1.39,1.37,2.85,1.34,4.11-.17,.03-.27,.07-.28,.13Z"/><path class="cls-8" d="M168.44,107.99h0c0,.24-.05,.47-.13,.68-.13-.19-.19-.37-.15-.55,.01-.07,.11-.11,.28-.13Z"/><path class="cls-8" d="M53.13,264.85c-2.39,0-6.92,1.33-9.72,2.26-2.8,.94-6,6.13-7.73,7.86s-10.13,2.13-12.25,1.33c-2.13-.8-15.45-1.46-18.38,0-2.93,1.46-4.93,3.07-4.8,1.34,.13-1.73,2.93-3.86,4.13-6.4,1.2-2.53,2.93-9.85,6.53-11.98,3.6-2.13,19.84-1.2,20.77-2.67,.94-1.46-6.79-5.86-7.19-7.33-.4-1.46,1.5-4.26,3.6-4.93,.51-.17,1-.3,1.45-.41,.52,2.27,3.06,2.02,4.59,2.02,.09,0,.19-.02,.29-.06,.16,.76,.35,1.51,.59,2.18,.86,2.47-.53,4.13-.8,5.19-.27,1.06-2.53,5.92-2.93,7.69-.39,1.77-1.2,5.5,0,5.5s6.53-5.33,6.66-11.59c.05-2.34,1.44-3.92,3.2-5.21,1.05,.78,1.92,1.38,2.39,1.62,1.86,.94,2.53,3.73,4.12,4.93,1.6,1.2,4.8,.67,8.13,1.6,3.33,.93-.27,7.06-2.67,7.06Z"/><path class="cls-8" d="M152.09,227.81c-.26,.53-.63,.93-1.07,1.22-2.52,1.67-7.4-.14-8.77-.28h-.02c-.13-.03-.25-.06-.37-.09-3.54-.8-6.73-1.09-9.48-1.14-4.55-.08-7.91,.5-9.74,.57-3.61,.13-3.85-1.73-5.98-2-2.13-.27-6.92,1.33-12.38,1.6-5.46,.27-10.39-3.46-16.78,2-6.39,5.46-16.25,9.99-19.31,9.86-3.06-.13-9.86-6.8-11.59-6.66-1.73,.13-1.2,3.6-2.26,4.93-1.07,1.33-4.67,1.46-5.59,5.69-.59,2.65-4.62,3.98-7.59,6.14-1.76,1.29-3.15,2.87-3.2,5.21-.13,6.26-5.46,11.59-6.66,11.59s-.39-3.73,0-5.5c.4-1.77,2.67-6.62,2.93-7.69,.27-1.06,1.66-2.72,.8-5.19-.23-.67-.43-1.42-.59-2.18,.3-.11,.65-.35,1.04-.69,1.82-1.58,4.28-5.13,4.28-5.13,0,0,5.11-7.41,5.11-8.94s1.98-2.05,4.57-3.32c2.59-1.28,4.37-9.19,8.2-12.51,3.83-3.32,10.72-3.57,15.07-3.57s11.49-5.62,13.53-7.15c.07-.05,.15-.11,.23-.16h0c2.11-1.52,6.7-3.79,13.11-3.2,.15,0,.29,.03,.44,.04,6.9,.77,14.04,2.05,15.32,3.32s2.05,2.3,4.6,2.81c1.96,.39,15.49,6.94,22.72,10.09h0c2.19,.96,3.8,1.59,4.34,1.65,2.3,.26,7.15,4.6,5.11,8.68Z"/><path class="cls-8" d="M198.15,208.98c-1.04,2.22-.3,7.1-1.34,9.46-1.04,2.37-3.4,1.48-4.28,4.29-.89,2.81-.3,5.62,1.77,10.8,2.07,5.17-3.26,6.21-4.29,8.73-.17,.41-.31,.95-.43,1.6h0c-.64,3.4-.8,9.5-1.79,11.86-1.18,2.81-6.08,1.44-6.59,4.51-.51,3.06-.25,4.59-2.55,5.36-2.3,.77-1.28,1.53-6.56,2.55-5.29,1.02-8.25-1.28-8.25-3.32s-5.11-9.44-7.91-16.08c-2.81-6.64-8.42-10.47-10.97-11.49-2.55-1.02-.51-3.58-.77-5.62-.25-2.04-2.3-2.04-2.3-2.81,0-.09,.13-.12,.35-.09h.02c1.37,.14,6.25,1.95,8.77,.28,.44-.29,.81-.69,1.07-1.22,2.05-4.08-2.81-8.42-5.11-8.68-.53-.06-2.15-.7-4.34-1.65h0c-7.23-3.15-20.76-9.7-22.72-10.09-2.55-.51-3.32-1.53-4.6-2.81s-8.42-2.55-15.32-3.32c-.15-.01-.29-.03-.44-.04-6.41-.59-11,1.68-13.11,3.19h0c-.08,.06-.15,.11-.23,.17-2.04,1.53-9.19,7.15-13.53,7.15s-11.24,.25-15.07,3.57c-3.83,3.32-5.61,11.24-8.2,12.51-2.59,1.28-4.57,1.79-4.57,3.32s-5.11,8.94-5.11,8.94c0,0-2.47,3.55-4.28,5.13-.38,.34-.74,.58-1.04,.69-.11,.04-.21,.06-.29,.06-1.53,0-4.07,.25-4.59-2.02,0,0,0-.02,0-.03-.51-2.3,4.34-7.91,3.32-10.72-1.02-2.81-9.2-10.21-12-11.24-2.81-1.02-2.55-4.85-2.04-9.2,.51-4.34,12.25-14.55,13.02-16.34,.76-1.79-8.68-6.64-7.15-8.44,1.53-1.8,23.23-17.35,25.02-18.88,1.78-1.53,4.34-3.58,6.38-3.58s12.25-10.72,13.79-11.49c1.53-.76,8.94-4.08,8.94-5.87s-4.09-2.05-4.09-5.62,2.05-5.61,5.62-7.7c1.28,.85,19.75-7.36,27.13-13.57h.01c.59-.51,1.12-1,1.55-1.46,1.61-1.74,3.46-2.24,5.31-1.97,4.85,.69,9.69,6.59,10.34,9.18,.47,1.9,1.76,1.99,3.27,1.21-.59,.61-1,1.03-1.17,1.18-1.69,1.46-4.67,2-5.33,2s-1.07,3.73-2.67,4.8c-1.6,1.06-3.46,2.26-3.6,3.06-.13,.8-5.59,2.13-7.46,2.93-1.86,.8-1.46,5.73,0,5.19,1.46-.53,3.46,1.2,4.93,0,1.47-1.2,2.4-1.6,4.67-1.86,2.27-.26,7.46-1.86,10.39-1.99,.28-.01,.8-.25,1.48-.69-.94,1.34-1.46,2.49-1.3,3.16,.02,.07,.04,.14,.06,.21,.02,.07,.05,.13,.07,.19,.15,.38,.35,.66,.58,.86,.03,.03,.07,.06,.11,.09,.2,.15,.41,.25,.64,.33,.11,.03,.21,.06,.31,.09,.37,.09,.75,.13,1.1,.17,.17,.03,.34,.05,.5,.09,.15,.04,.3,.09,.43,.17,1.02,.59,5.99-.15,8.03,.44,.09,.02,.16,.05,.23,.09h0c.07,.05,.14,.09,.19,.15,.05,.04,.1,.09,.13,.13,.04,.05,.07,.1,.11,.15,.09,.16,.16,.34,.21,.54,.02,.09,.04,.17,.05,.27,.01,.07,.02,.13,.02,.2,0,.09,.01,.19,.01,.29,0,.11,0,.23-.01,.34,0,.09-.01,.19-.03,.28-.01,.11-.03,.21-.05,.33-.01,.1-.03,.2-.05,.3,0,.01,0,.03-.01,.05-.02,.1-.05,.21-.07,.31-.18,.72-.47,1.45-.81,2.07-.05,.1-.1,.19-.16,.28-.09,.15-.18,.29-.28,.42-.05,.08-.11,.15-.17,.23-.05,.07-.11,.15-.18,.21-.14,.15-.28,.27-.43,.37-1.76,1.16-7.31-.59-9.21-.74-.37-.03-.84,.05-1.36,.22-.33,.1-.7,.24-1.06,.41-.03,.01-.07,.03-.1,.05-.21,.1-.42,.21-.63,.33-.25,.13-.49,.28-.73,.43-.12,.07-.23,.15-.35,.23s-.23,.16-.34,.25c-.09,.07-.18,.13-.27,.21-.02,.01-.04,.03-.06,.05-.11,.08-.21,.17-.3,.26-.03,.02-.05,.04-.08,.07-.07,.07-.15,.13-.21,.2-.13,.13-.25,.26-.36,.39-.06,.07-.11,.13-.16,.2-.07,.09-.13,.17-.19,.26-.07,.11-.13,.21-.17,.31,0,.01-.01,.02-.01,.03-.03,.05-.05,.1-.07,.15-.08,.21-.13,.41-.13,.61,0,.86,.31,1.25,.76,1.37,.3,.07,.66,.03,1.04-.08,.11-.03,.21-.07,.31-.11,.31-.12,.63-.27,.92-.45,1.28-.73,15.67-.15,17.87-1.6,.11-.07,.21-.15,.29-.24,.04-.04,.08-.09,.12-.13,.04-.04,.07-.09,.11-.14,.04-.05,.07-.1,.1-.15,.03-.05,.06-.1,.09-.16,.05-.11,.1-.22,.14-.35,.04-.12,.07-.24,.1-.37,.03-.13,.05-.26,.07-.4,.25-2.07-.61-4.97,.01-6.54,.03-.07,.05-.13,.08-.19,.05-.09,.1-.18,.15-.25,.04-.07,.09-.13,.15-.19,.04-.04,.07-.08,.11-.11,1.12-1.04,3.24-.06,5.35-.55,.04,0,.08-.02,.11-.05,.03-.01,.06-.03,.09-.05,.04-.03,.07-.05,.11-.09,.05-.05,.09-.1,.13-.17,.05-.06,.08-.13,.11-.21,.04-.08,.07-.17,.09-.26,0,0,0-.01,0-.02,.03-.09,.05-.18,.07-.28,.07-.29,.1-.65,.11-1.04,0-.09,0-.17,0-.27,.09-4.46-2.06-13.72-1.72-16.29,.07-.55,.17-1,.29-1.35,.02-.07,.05-.15,.08-.21,.13-.32,.28-.55,.45-.72,.03-.03,.07-.07,.11-.1,.04-.03,.07-.05,.11-.08,.22-.14,.46-.19,.7-.19,.18,0,.37,.03,.54,.07,.17,.04,.35,.08,.49,.11,.03,0,.07,.01,.11,.01,.05,0,.09,0,.15,.01,.03,0,.07,0,.11,0,.11,0,.23,.01,.37,.02,.04,0,.08,0,.13,0,.08,0,.17,0,.25,.01,.33,0,.72,.02,1.14,.03,.26,0,.53,.01,.8,.02,.14,0,.29,0,.44,0,1.82,.05,3.84,.09,4.69,.16,.08,0,.15,.04,.23,.11,0,0,.01,0,.03,.02,.02,.01,.04,.03,.05,.05,.01,0,.03,.02,.03,.03,.07,.08,.14,.18,.19,.29,.13,.23,.25,.54,.36,.9,.03,.09,.07,.18,.09,.28,.05,.19,.11,.4,.16,.61,.18,.76,.34,1.64,.47,2.57,.03,.21,.06,.42,.09,.64,.13,1.04,.23,2.1,.29,3.06,.01,.14,.02,.27,.03,.41,.01,.19,.02,.37,.03,.55,.01,.2,.02,.39,.03,.57,.03,1.23-.02,2.09-.17,2.16-.07,.03-.17,.03-.29,.02-.05,0-.1-.01-.16-.03-.11-.03-.23-.07-.37-.11-.27-.09-.59-.22-.93-.34-.08-.03-.17-.07-.25-.09-.17-.07-.35-.12-.53-.17-.11-.03-.23-.07-.33-.09-.23-.05-.45-.1-.67-.12-.29-.03-.57-.02-.82,.04-.16,.03-.31,.09-.45,.17-.04,.03-.08,.05-.11,.09-.03,.03-.06,.07-.08,.1-.04,.05-.07,.11-.09,.17-.03,.07-.05,.14-.07,.22-.01,.05-.03,.11-.03,.17-.01,.09-.03,.18-.03,.28,0,.1-.01,.21,0,.33,0,.07,0,.13,0,.21,0,.07,0,.15,0,.23,.01,.17,.03,.35,.05,.54v.05c.03,.27,.06,.56,.1,.86,.03,.3,.07,.62,.11,.94,0,.11,.02,.21,.03,.32,.02,.21,.04,.42,.05,.63,.03,.4,.05,.81,.03,1.19,0,.09,0,.16,0,.24-.01,.24-.04,.47-.07,.69-.01,.07-.03,.15-.05,.21-.03,.15-.07,.29-.12,.43-.02,.06-.04,.11-.07,.17,0,0,0,.02-.01,.03-.03,.08-.07,.16-.11,.23-.05,.09-.1,.17-.16,.25,0,.01-.02,.03-.03,.04-.07,.09-.14,.17-.22,.25-.05,.05-.1,.09-.15,.13-.05,.04-.11,.08-.17,.11-.07,.05-.14,.09-.21,.13-.21,.13-.43,.27-.67,.41-.27,.16-.54,.33-.82,.51-.04,.02-.08,.05-.12,.07-.26,.16-.51,.33-.77,.5-.17,.11-.34,.23-.5,.35-.49,.35-.96,.72-1.34,1.11-.07,.05-.13,.11-.17,.17-.16,.16-.3,.33-.42,.49-.13,.17-.24,.33-.32,.51-.05,.07-.08,.15-.11,.23,0,.01-.01,.03-.02,.05-.03,.07-.06,.15-.08,.23,0,0,0,.01,0,.02-.03,.09-.05,.17-.05,.25-.01,.09-.02,.18-.02,.27,0,.41,.13,.84,.43,1.28,.09,.13,.17,.25,.23,.37,.07,.11,.14,.23,.2,.35,.07,.13,.14,.27,.19,.4,.03,.06,.05,.12,.07,.18,.01,.03,.02,.06,.03,.09,.66,1.84-.29,3.13-1.43,5.07-.17,.3-.37,.56-.6,.79-.11,.12-.23,.23-.35,.33-.49,.39-1.06,.69-1.67,.92-.15,.06-.31,.11-.47,.16-.31,.1-.64,.19-.97,.27-.17,.04-.33,.08-.49,.12l-.5,.12c-.67,.15-1.33,.31-1.97,.52-.15,.05-.28,.12-.39,.22-.05,.04-.11,.09-.15,.15-.05,.06-.09,.13-.13,.21,0,.01-.02,.03-.02,.05-.03,.06-.06,.13-.07,.2,0,0-.01,.02,0,.03-.03,.07-.04,.15-.05,.23-.29,2.09,2.23,6.32,2.23,7.33,0,.23-.29,.45-.8,.64-.41,.15-.94,.29-1.56,.43-.51,.11-1.09,.21-1.69,.3h0c-1.2,.19-2.52,.34-3.71,.48-.17,.02-.33,.03-.49,.05-.28,.03-.55,.06-.8,.09-.13,.01-.25,.03-.37,.05-.61,.07-1.14,.13-1.52,.2-.11,.02-.2,.05-.29,.11-.09,.05-.18,.12-.25,.21-.06,.06-.11,.13-.15,.2-.05,.07-.1,.15-.14,.23-.05,.09-.09,.17-.13,.27-.09,.21-.17,.46-.23,.73-.03,.09-.05,.18-.07,.27,0,.01,0,.03,0,.04-.04,.18-.07,.38-.11,.58-.03,.2-.06,.41-.09,.63,0,.02,0,.04,0,.06-.03,.25-.05,.51-.07,.78-.03,.39-.05,.79-.07,1.2-.01,.34-.02,.69-.02,1.04-.04,3.21,.26,6.63,.29,7.55,0,.05,.01,.11,.03,.16h0c.04,.11,.1,.2,.19,.28,.07,.07,.18,.13,.29,.19,.05,.03,.1,.05,.15,.07,.12,.05,.24,.1,.38,.14,.22,.07,.47,.12,.76,.17,.27,.05,.57,.09,.88,.12,.37,.04,.76,.07,1.15,.1,.39,.03,.8,.05,1.2,.08,.02,0,.03,0,.05,0,.31,.02,.62,.04,.93,.06,.15,0,.3,.02,.45,.03,.09,0,.18,.01,.27,.03,.17,.01,.35,.03,.51,.05,.25,.03,.49,.06,.7,.1,.15,.03,.28,.05,.41,.09,.15,.04,.29,.09,.41,.13,0,0,.02,0,.03,.01,.06,.03,.12,.06,.17,.09,.05,.03,.1,.05,.14,.09,.02,.01,.04,.03,.06,.06,.02,.01,.04,.03,.05,.05,.1,.12,.23,.23,.38,.32,.05,.03,.1,.05,.16,.09,.09,.04,.17,.08,.27,.11,.19,.07,.39,.12,.61,.16h.01c.14,.03,.29,.05,.43,.07,.8,.1,1.7,.09,2.49,.05,.21-.01,.41-.03,.61-.03,.06,0,.13-.01,.19-.01,.43-.02,.79-.05,1.02-.05,.04,0,.08,0,.12,.01h0s.07,.03,.11,.05c.03,.01,.07,.04,.1,.07,.03,.02,.07,.05,.09,.09,.03,.03,.05,.06,.07,.09,.02,.03,.04,.07,.05,.1,.13,.27,.19,.67,.15,1.08,0,.09-.01,.17-.03,.26-.04,.26-.12,.52-.23,.76-.03,.09-.08,.17-.12,.24l-.08,.12c-.03,.05-.07,.11-.11,.15-.08,.1-.17,.19-.27,.27-.05,.04-.1,.08-.15,.11-.07,.05-.15,.09-.23,.13-.04,.02-.08,.03-.12,.05-.06,.03-.13,.05-.19,.06-.11,.03-.23,.06-.33,.1-.11,.03-.21,.08-.31,.13-.2,.09-.39,.21-.57,.33-.37,.25-.7,.54-1,.84-.08,.07-.15,.15-.23,.23-.07,.06-.13,.13-.19,.19-.05,.05-.11,.11-.17,.16-.14,.14-.28,.27-.42,.39-.11,.1-.23,.18-.35,.26-.11,.07-.23,.13-.35,.17-1.12,.42-7.45-1.4-9.97,.14-.03,.02-.05,.03-.08,.06-.03,.01-.05,.03-.07,.05-.05,.03-.09,.07-.13,.12-.07,.06-.12,.13-.16,.19-.05,.07-.08,.14-.11,.21-.03,.09-.06,.17-.07,.26-.01,.07-.02,.15-.02,.23s0,.16,.02,.25c.01,.11,.04,.23,.08,.35,.03,.11,.07,.21,.12,.32,.05,.11,.1,.21,.16,.33,.18,.33,.43,.66,.73,1,.09,.11,.19,.22,.31,.33,.27,.27,.57,.54,.9,.8,.11,.09,.22,.17,.33,.25,1.01,.72,2.22,1.3,3.45,1.56,.11,.03,.22,.05,.33,.06,.2,.03,.41,.06,.61,.07,.13,0,.26,.01,.39,.01,.12,0,.23,0,.35-.01,.05,0,.11,0,.17,0,4.5-.42,14.6,2.39,18.25,2.39,.34,0,.61,.08,.84,.22,.07,.05,.14,.11,.2,.17,.05,.04,.09,.08,.11,.13,.03,.04,.06,.08,.09,.13,.07,.1,.13,.21,.17,.33,.03,.05,.05,.11,.07,.17,.09,.24,.15,.52,.19,.82,.01,.07,.02,.15,.03,.23,.11,.92,.07,2.03,.11,3.09l.02,.52c.01,.17,.03,.35,.05,.51,.02,.17,.04,.33,.07,.49,.02,.11,.04,.22,.07,.33,.01,.07,.03,.15,.05,.22,.03,.12,.07,.24,.11,.35,.04,.11,.08,.22,.13,.32,.1,.2,.21,.39,.35,.55,.07,.08,.15,.15,.23,.22,.09,.07,.17,.13,.27,.19,.1,.05,.2,.1,.31,.14,.05,.02,.11,.04,.17,.06,.07,.02,.15,.03,.23,.05,.07,.02,.15,.03,.24,.03h.01s.06,.02,.09,.02c.28,.02,.55,0,.81-.05,0,0,0,0,0,0,.03,0,.05,0,.07-.01,.07-.01,.15-.03,.22-.06,.19-.05,.38-.13,.56-.23,.19-.09,.36-.2,.54-.32,.09-.06,.17-.13,.25-.19,.1-.08,.19-.16,.29-.25,.05-.05,.11-.1,.16-.15l.15-.15h0c.16-.17,.31-.33,.45-.51,.5-.63,.96-1.37,1.36-2.13,.06-.11,.11-.22,.17-.33,.05-.11,.11-.22,.17-.33,.05-.11,.1-.22,.15-.33,.14-.3,.27-.6,.39-.9,.03-.07,.06-.15,.09-.21,.06-.15,.11-.29,.17-.43l.12-.32c.33-.85,.57-1.6,.76-2.11,.02-.07,.05-.14,.07-.2,.03-.08,.05-.15,.09-.21,.01-.03,.02-.07,.03-.09,0-.02,.01-.03,.02-.05,.01-.02,.02-.03,.03-.05,0-.02,.02-.04,.03-.05,.42-.55,11.66-.15,13.06,0,.07,0,.14,0,.2,0,.04,0,.08-.02,.11-.03,.11-.03,.2-.11,.27-.2,.04-.04,.07-.08,.09-.13,.03-.03,.04-.05,.06-.09,.05-.08,.09-.17,.13-.27,.02-.05,.04-.11,.06-.17,.09-.27,.17-.59,.23-.95,.04-.24,.08-.49,.11-.76,.03-.26,.07-.53,.11-.82,0-.09,.02-.19,.03-.28,.04-.29,.08-.57,.13-.86l.06-.36c.07-.34,.14-.68,.23-1,.15-.56,.45-1.02,.83-1.38,.21-.21,.45-.39,.7-.55,.17-.11,.34-.21,.52-.28,.12-.06,.25-.11,.37-.16,.19-.07,.37-.13,.56-.19,.19-.05,.37-.09,.55-.13h0c.7-.14,1.33-.15,1.66-.11,.98,.14,8.56-.98,9.68-.98,.28,0,.52-.13,.72-.35,.13,.88,.25,1.46,.35,1.72,1.78,4.59-1.77,7.69-2.81,9.91Z"/><path class="cls-8" d="M130.78,147.93c-.35-.05-.74-.08-1.1-.17,.37,.09,.76,.12,1.1,.17Z"/><path class="cls-8" d="M133.59,190.4c.22,.06,.47,.12,.76,.17-.28-.05-.53-.1-.76-.17Z"/><path class="cls-8" d="M131.71,148.19c-.13-.07-.27-.13-.43-.17,.16,.04,.3,.09,.43,.16,1.02,.59,5.99-.15,8.03,.44,.09,.03,.17,.05,.23,.09-.07-.03-.15-.07-.23-.09-2.04-.59-7,.15-8.03-.44Z"/><path class="cls-8" d="M140.61,149.7c-.05-.2-.11-.38-.21-.54,.1,.15,.17,.34,.21,.54Z"/><path class="cls-8" d="M141.77,191.67s-.03-.04-.05-.05c.02,0,.04,.03,.05,.05h0Z"/><path class="cls-8" d="M143.54,158.72c-2.19,1.46-16.59,.88-17.87,1.6-.29,.17-.61,.33-.92,.45,.31-.13,.63-.29,.92-.45,1.28-.73,15.67-.15,17.87-1.6,.11-.07,.2-.15,.29-.23-.08,.09-.18,.17-.29,.24Z"/><path class="cls-8" d="M146.93,192.42c.43-.03,.78-.05,1.02-.05,.04,0,.08,0,.12,.02-.04,0-.08-.01-.12-.01-.23,0-.58,.03-1.02,.05Z"/><path class="cls-8" d="M145.06,149.48c1.12-1.05,3.24-.07,5.35-.56,.04,0,.07-.02,.11-.04-.03,.03-.07,.04-.11,.05-2.11,.49-4.23-.49-5.35,.55Z"/><path class="cls-8" d="M151.28,127.56c-.23,0-.47,.05-.7,.19,.22-.15,.46-.19,.7-.19Z"/><path class="cls-8" d="M152.31,127.73c-.15-.03-.32-.07-.49-.11,.17,.03,.35,.07,.49,.1,.03,0,.07,.01,.11,.02-.04,0-.08,0-.11-.01Z"/><path class="cls-8" d="M158.76,207.8c.35,0,.62,.08,.84,.23-.23-.14-.5-.22-.84-.22-3.65,0-13.76-2.81-18.25-2.39-.05,0-.11,0-.17,0,.05,0,.11,0,.17-.01,4.5-.42,14.6,2.39,18.25,2.39Z"/><path class="cls-8" d="M160.5,128.02c.08,0,.15,.04,.23,.11-.08-.07-.15-.1-.23-.11-.86-.07-2.87-.11-4.69-.16,1.82,.04,3.84,.07,4.69,.15Z"/><path class="cls-8" d="M161.03,128.53c.13,.23,.25,.53,.36,.9-.11-.35-.23-.66-.36-.9Z"/><path class="cls-8" d="M165.43,216.2c-.73,.59-1.56,.94-2.47,.88-.03,0-.07-.01-.09-.02,.03,0,.06,.01,.09,.01,.91,.06,1.74-.29,2.47-.87Z"/><path class="cls-8" d="M183.18,207.38c.07,0,.13,0,.2,0-.06,.01-.13,.01-.2,0-1.4-.14-12.64-.55-13.06,0h0c.42-.56,11.66-.15,13.06-.01Z"/><path class="cls-8" d="M183.5,207.35c.1-.05,.19-.11,.27-.2-.07,.09-.17,.17-.27,.2Z"/><path class="cls-8" d="M185.84,200.1c.21-.21,.45-.4,.7-.55-.25,.16-.49,.34-.7,.55Z"/><path class="cls-8" d="M200.61,197.35h0c-.2,.22-.44,.35-.72,.35-1.12,0-8.7,1.12-9.68,.98-.33-.05-.96-.03-1.66,.11,.7-.15,1.32-.16,1.66-.11,.98,.14,8.56-.98,9.68-.98,.28,0,.52-.13,.72-.35Z"/><path class="cls-8" d="M267.41,294.92c-2.67,5.56-14.68,15.57-17.13,19.14-2.45,3.56-6.45,3.78-9.79,3.78s-4.89,6.9-8.45,7.57c-3.56,.66-5.34,1.33-5.78,3.78-.45,2.45-7.35,2.67-10.02,0-2.67-2.67-5.11-4.45-7.34-3.12-2.23,1.34-1.12,3.62-3.34,5.04-2.23,1.42-10.24,.08-11.8,1.86-1.56,1.78,2.23,6.01-1.34,6.01s-2.23-2.67-5.34-3.34c-3.11-.67-5.11,3.11-9.12,3.34-4,.23-1.56-4.44-4.22-6.01-2.67-1.56-5.34-4.44-5.56-9.78-.23-5.34-1.78-8.9-3.56-10.68-1.78-1.78-7.57-10.15-8.47-13.98-.9-3.83-9.36-.34-10.26-3.5-.9-3.15,5.41-6.2,4.06-9.35-1.35-3.15-18.7,2.7-18.03-10.71s8.65-12.4,7.82-21.19c-.84-8.79-11.66-14.88-11.99-17.24-.34-2.37,3.15-1.24,4.17-3.83,.56-1.44,.5-3.4,.47-5.19,2.75,.05,5.94,.35,9.48,1.14l.02,.17c0,.77,2.05,.77,2.3,2.81,.25,2.05-1.78,4.6,.77,5.62,2.55,1.02,8.17,4.85,10.97,11.49,2.81,6.64,7.91,14.04,7.91,16.08s2.96,4.34,8.25,3.32c5.29-1.02,4.26-1.78,6.56-2.55,2.3-.77,2.05-2.3,2.55-5.36,.51-3.07,5.41-1.7,6.59-4.51,1-2.36,1.15-8.47,1.79-11.86h0c1.75-2,4.24-4.04,6.85-3.69,4.89,.67,4.69-3.56,5.01-5.78,.33-2.23,7-2.67,9.22,0,2.23,2.67,2.89,3.78,6.01,2.23,3.11-1.56,11.13-7.57,13.35-7.57s6.45,1.68,8.68,1.95c2.23,.27,11.35-1.82,12.02,0,.66,1.83-2.67,9.17-1.78,14.07,.89,4.89,9.79,11.57,12.02,14.02,2.23,2.45,2.89,18.25,3.78,20.69,.89,2.45,5.34,9.57,2.67,15.13Z"/></g><g><polygon class="cls-7" points="30.99 257.92 27.93 267.11 24.87 257.92 24.87 238.43 21.54 238.43 21.54 223.12 46.02 223.12 46.02 238.43 30.99 238.43 30.99 257.92"/><polygon class="cls-6" points="30.99 257.92 27.93 267.11 24.87 257.92 24.87 238.43 21.54 238.43 21.54 223.12 46.02 223.12 46.02 238.43 30.99 238.43 30.99 257.92"/><text class="cls-1" transform="translate(31.5 233.87)"><tspan x="0" y="0">1</tspan></text></g><g><polygon class="cls-7" points="175.33 277.73 172.27 286.92 169.21 277.73 169.21 258.24 165.88 258.24 165.88 242.93 190.37 242.93 190.37 258.24 175.33 258.24 175.33 277.73"/><polygon class="cls-6" points="175.33 277.73 172.27 286.92 169.21 277.73 169.21 258.24 165.88 258.24 165.88 242.93 190.37 242.93 190.37 258.24 175.33 258.24 175.33 277.73"/><text class="cls-1" transform="translate(175.85 253.68)"><tspan x="0" y="0">5</tspan></text></g><g><polygon class="cls-7" points="166.77 234.17 163.71 243.35 160.65 234.17 160.65 214.67 157.32 214.67 157.32 199.37 181.81 199.37 181.81 214.67 166.77 214.67 166.77 234.17"/><polygon class="cls-6" points="166.77 234.17 163.71 243.35 160.65 234.17 160.65 214.67 157.32 214.67 157.32 199.37 181.81 199.37 181.81 214.67 166.77 214.67 166.77 234.17"/><text class="cls-1" transform="translate(167.28 210.12)"><tspan x="0" y="0">4</tspan></text></g><g><polygon class="cls-7" points="111.78 189.52 108.72 198.7 105.66 189.52 105.66 170.02 102.33 170.02 102.33 154.71 126.81 154.71 126.81 170.02 111.78 170.02 111.78 189.52"/><polygon class="cls-6" points="111.78 189.52 108.72 198.7 105.66 189.52 105.66 170.02 102.33 170.02 102.33 154.71 126.81 154.71 126.81 170.02 111.78 170.02 111.78 189.52"/><text class="cls-1" transform="translate(112.29 165.47)"><tspan x="0" y="0">2</tspan></text></g><g><polygon class="cls-7" points="101.07 142.83 98.01 152.02 94.95 142.83 94.95 123.33 91.62 123.33 91.62 108.03 116.11 108.03 116.11 123.33 101.07 123.33 101.07 142.83"/><polygon class="cls-6" points="101.07 142.83 98.01 152.02 94.95 142.83 94.95 123.33 91.62 123.33 91.62 108.03 116.11 108.03 116.11 123.33 101.07 123.33 101.07 142.83"/><text class="cls-1" transform="translate(101.59 118.78)"><tspan x="0" y="0">3</tspan></text></g></g></g></svg>