<?xml version="1.0" encoding="UTF-8"?><svg id="Calque_2" xmlns="http://www.w3.org/2000/svg" viewBox="0 0 20.68 20.86"><defs><style>.cls-1{fill:#aea895;}</style></defs><g id="Section_Product"><g><path class="cls-1" d="M19.22,3.6c-1.71,0-3.42,0-5.13,0-3.33,0-6.65,0-9.98,0-.16,0-.21-.04-.22-.2-.09-.89-.19-1.79-.28-2.68C3.56,.28,3.28,0,2.83,0,2.14,0,1.46,0,.77,0,.32,0,0,.3,0,.72c0,.43,.32,.73,.78,.73,.44,0,.87,0,1.31,0,.12,0,.15,.04,.16,.15,.11,1.09,.23,2.18,.34,3.28,.12,1.13,.23,2.26,.35,3.39,.13,1.26,.26,2.52,.4,3.78,.05,.47,.07,.94,.17,1.39,.2,1,1.09,1.69,2.12,1.69,1.86,0,3.72,0,5.58,0s3.72,0,5.58,0c1.05,0,1.92-.69,2.14-1.72,.49-2.25,.97-4.51,1.45-6.76,.09-.43,.18-.85,.27-1.28,.19-.95-.47-1.76-1.44-1.76Zm0,1.63c-.56,2.59-1.12,5.19-1.67,7.78-.1,.44-.34,.65-.8,.65-3.69,0-7.38,0-11.07,0-.47,0-.74-.24-.79-.7-.13-1.24-.26-2.48-.39-3.72-.14-1.35-.28-2.69-.43-4.04-.02-.15,.02-.17,.16-.17,2.48,0,4.96,0,7.43,0s4.93,0,7.4,0c.17,0,.19,.04,.16,.19Z"/><path class="cls-1" d="M15.12,16.55c-1.2,0-2.17,.97-2.17,2.16,0,1.19,.96,2.15,2.15,2.16,1.2,0,2.17-.96,2.17-2.15,0-1.18-.97-2.16-2.15-2.16Zm-.02,2.88c-.39,0-.71-.33-.71-.72,0-.4,.32-.72,.72-.72,.39,0,.71,.32,.71,.71,0,.4-.33,.73-.72,.72Z"/><path class="cls-1" d="M6.49,16.55c-1.2,0-2.17,.96-2.17,2.15,0,1.19,.95,2.16,2.14,2.16,1.2,0,2.17-.95,2.17-2.15,0-1.19-.96-2.16-2.14-2.16Zm0,2.88c-.39,0-.73-.32-.73-.71,0-.39,.31-.71,.7-.72,.4,0,.73,.32,.74,.71,0,.38-.32,.72-.71,.73Z"/></g></g></svg>